<svg width="127" height="122" viewBox="0 0 127 122" fill="none" xmlns="http://www.w3.org/2000/svg">
<g filter="url(#filter0_d_1357_1288)">
<path d="M90.3917 0C83.3925 0 76.9442 2.67069 71.4539 7.65401C65.9635 2.67069 59.5094 0 52.516 0C31.358 0 16 24.271 16 57.7162C16 91.1614 31.358 115.432 52.516 115.432C59.5094 115.432 65.9635 112.762 71.4539 107.778C76.9442 112.762 83.3983 115.432 90.3917 115.432C111.55 115.432 126.908 91.1614 126.908 57.7162C126.908 24.271 111.55 0 90.3917 0Z" fill="#FFFCFB"/>
<path d="M52.5157 99.7486C64.22 99.7486 73.7082 80.93 73.7082 57.7161C73.7082 34.5022 64.22 15.6836 52.5157 15.6836C40.8114 15.6836 31.3232 34.5022 31.3232 57.7161C31.3232 80.93 40.8114 99.7486 52.5157 99.7486Z" fill="#FFFCFB"/>
<path d="M52.516 101.991C39.4069 101.991 29.1377 82.5447 29.1377 57.7161C29.1377 32.8875 39.4069 13.4414 52.516 13.4414C65.625 13.4414 75.8943 32.8875 75.8943 57.7161C75.8943 82.5447 65.625 101.991 52.516 101.991ZM52.516 17.9199C42.2181 17.9199 33.515 36.1452 33.515 57.7161C33.515 79.2871 42.2181 97.5123 52.516 97.5123C62.8139 97.5123 71.5169 79.2871 71.5169 57.7161C71.5169 36.1452 62.8139 17.9199 52.516 17.9199Z" fill="#1B1916"/>
<path d="M56.9852 51.2419C55.4419 40.072 50.2958 31.8604 44.1745 31.8604C36.8311 31.8604 30.8818 43.6701 30.8818 58.2327C30.8818 72.7952 36.8368 84.605 44.1745 84.605C50.2958 84.605 55.4362 76.3875 56.9852 65.2234L45.1498 58.2327L56.9852 51.2419Z" fill="#1B1916"/>
<path d="M90.3917 99.7486C102.096 99.7486 111.584 80.93 111.584 57.7161C111.584 34.5022 102.096 15.6836 90.3917 15.6836C78.6874 15.6836 69.1992 34.5022 69.1992 57.7161C69.1992 80.93 78.6874 99.7486 90.3917 99.7486Z" fill="#FFFCFB"/>
<path d="M90.3919 101.991C77.2829 101.991 67.0137 82.5447 67.0137 57.7161C67.0137 32.8875 77.2829 13.4414 90.3919 13.4414C103.501 13.4414 113.77 32.8875 113.77 57.7161C113.77 82.5447 103.501 101.991 90.3919 101.991ZM90.3919 17.9199C80.094 17.9199 71.391 36.1452 71.391 57.7161C71.391 79.2871 80.094 97.5123 90.3919 97.5123C100.69 97.5123 109.393 79.2871 109.393 57.7161C109.393 36.1452 100.69 17.9199 90.3919 17.9199Z" fill="#1B1916"/>
<path d="M94.8612 51.2419C93.3179 40.072 88.1718 31.8604 82.0504 31.8604C74.7071 31.8604 68.7578 43.6701 68.7578 58.2327C68.7578 72.7952 74.7128 84.605 82.0504 84.605C88.1718 84.605 93.3122 76.3875 94.8612 65.2234L83.0257 58.2327L94.8612 51.2419Z" fill="#1B1916"/>
</g>
<defs>
<filter id="filter0_d_1357_1288" x="0" y="0" width="126.907" height="121.432" filterUnits="userSpaceOnUse" color-interpolation-filters="sRGB">
<feFlood flood-opacity="0" result="BackgroundImageFix"/>
<feColorMatrix in="SourceAlpha" type="matrix" values="0 0 0 0 0 0 0 0 0 0 0 0 0 0 0 0 0 0 127 0" result="hardAlpha"/>
<feOffset dx="-16" dy="6"/>
<feColorMatrix type="matrix" values="0 0 0 0 0 0 0 0 0 0 0 0 0 0 0 0 0 0 0.12 0"/>
<feBlend mode="normal" in2="BackgroundImageFix" result="effect1_dropShadow_1357_1288"/>
<feBlend mode="normal" in="SourceGraphic" in2="effect1_dropShadow_1357_1288" result="shape"/>
</filter>
</defs>
</svg>
