<svg width="104" height="115" viewBox="0 0 104 115" fill="none" xmlns="http://www.w3.org/2000/svg">
<g clip-path="url(#clip0_1026_448)">
<path d="M95.54 63.1C92.26 61.2 84.13 59.74 75.66 58.68C74.18 58.49 74.18 56.34 75.66 56.15C84.14 55.08 92.26 53.62 95.54 51.73C103.6 47.08 106.36 36.77 101.71 28.71C97.06 20.65 86.75 17.89 78.69 22.54C75.41 24.44 70.08 30.74 64.92 37.55C64.02 38.74 62.15 37.66 62.73 36.29C66.05 28.42 68.84 20.65 68.84 16.86C68.84 7.55001 61.3 0.0100098 51.99 0.0100098C42.68 0.0100098 35.14 7.56001 35.14 16.86C35.14 20.65 37.94 28.42 41.25 36.29C41.83 37.67 39.96 38.75 39.06 37.55C33.9 30.74 28.57 24.44 25.29 22.54C17.23 17.89 6.91997 20.65 2.26997 28.71C-2.38003 36.77 0.379967 47.08 8.43997 51.73C11.72 53.63 19.85 55.09 28.32 56.15C29.8 56.34 29.8 58.49 28.32 58.68C19.84 59.74 11.72 61.21 8.43997 63.1C0.379967 67.75 -2.38003 78.06 2.26997 86.12C6.91997 94.18 17.23 96.94 25.29 92.29C28.57 90.39 33.9 84.09 39.06 77.28C39.96 76.09 41.83 77.16 41.25 78.54C37.94 86.41 35.14 94.18 35.14 97.97C35.14 107.28 42.69 114.82 51.99 114.82C61.29 114.82 68.84 107.27 68.84 97.97C68.84 94.18 66.04 86.41 62.73 78.54C62.15 77.16 64.02 76.08 64.92 77.28C70.08 84.09 75.41 90.39 78.69 92.29C86.75 96.94 97.06 94.18 101.71 86.12C106.36 78.06 103.6 67.75 95.54 63.1Z" id="flower" fill="#F9D43A"/>
</g>
<defs>
<clipPath id="clip0_1026_448">
<rect width="103.97" height="114.83" fill="white"/>
</clipPath>
</defs>
</svg>
