<svg width="196" height="196" viewBox="0 0 196 196" fill="none" xmlns="http://www.w3.org/2000/svg">
<g clip-path="url(#clip0_1026_469)">
<path d="M81.7759 6.72112L6.71816 81.7789C-2.2405 90.7376 -2.2405 105.262 6.71816 114.221L81.7759 189.279C90.7346 198.238 105.259 198.238 114.218 189.279L189.276 114.221C198.235 105.262 198.235 90.7376 189.276 81.7789L114.218 6.72112C105.259 -2.23754 90.7346 -2.23754 81.7759 6.72112Z" fill="#7589F9"/>
<path d="M75.1029 63.2984H90.0854V77.827H83.9071L83.1709 71.6118C82.4714 73.8328 81.2198 75.4833 79.416 76.5631C77.6122 77.6368 75.4158 78.1767 72.8205 78.1767C70.4584 78.1767 68.3601 77.649 66.5195 76.5999C64.685 75.5446 63.2432 74.0353 62.2002 72.072C61.1572 70.1087 60.6418 67.8141 60.6418 65.1943C60.6418 61.0038 61.8935 57.6969 64.3967 55.2611C66.8999 52.8254 70.7959 51.6106 76.0845 51.6106C79.1031 51.6106 81.7659 52.1014 84.0666 53.0831C86.3735 54.0647 88.3307 55.5863 89.9443 57.6416C88.889 58.1816 86.8337 59.2552 83.766 60.8688L82.8886 61.3597C81.9745 60.4455 80.9131 59.7645 79.6921 59.3043C78.4773 58.8442 77.1889 58.6172 75.833 58.6172C73.5874 58.6172 71.9125 59.2062 70.8143 60.3903C69.716 61.5744 69.1639 63.0285 69.1639 64.7587C69.1639 66.6299 69.7528 68.1392 70.937 69.2865C72.115 70.4339 73.9249 71.0044 76.3606 71.0044C77.4159 71.0044 78.4344 70.8572 79.4344 70.5504C80.4284 70.2498 81.2628 69.7222 81.9438 68.9736H75.1029V63.2862V63.2984Z" fill="#F5F3EE"/>
<path d="M96.6809 74.6856C94.1532 72.3603 92.8893 69.0902 92.8893 64.8813C92.8893 60.6725 94.147 57.4637 96.6625 55.1261C99.178 52.7824 103.123 51.6167 108.504 51.6167C113.884 51.6167 117.866 52.7824 120.382 55.1261C122.897 57.4637 124.155 60.7216 124.155 64.8813C124.155 69.0411 122.903 72.391 120.4 74.7102C117.897 77.0232 113.927 78.1828 108.504 78.1828C103.08 78.1828 99.2026 77.0171 96.6748 74.6918L96.6809 74.6856ZM114.124 69.5258C115.271 68.5319 115.842 66.9796 115.842 64.8752C115.842 62.7708 115.271 61.286 114.124 60.2798C112.976 59.2736 111.105 58.7705 108.51 58.7705C105.915 58.7705 104.074 59.2736 102.933 60.2798C101.786 61.286 101.215 62.8199 101.215 64.8752C101.215 66.9305 101.786 68.5012 102.933 69.5074C104.08 70.5136 105.939 71.0167 108.51 71.0167C111.081 71.0167 112.976 70.5197 114.124 69.5258Z" fill="#F5F3EE"/>
<path d="M135.358 50.457C135.358 52.0277 135.297 55.034 135.18 59.476C135.131 60.1816 135.107 60.6908 135.107 61.0221C134.64 64.3229 134.346 67.1943 134.229 69.6546H127.738C127.622 67.1943 127.327 64.3168 126.861 61.0221L126.824 59.476C126.683 55.8746 126.615 52.8682 126.615 50.457H135.352H135.358ZM135.039 78.5263H126.898V72.2805H135.039V78.5263Z" fill="#F5F3EE"/>
<path d="M75.1029 96.8036H90.0854V111.332H83.9071L83.1709 105.117C82.4714 107.338 81.2198 108.988 79.416 110.068C77.6122 111.142 75.4158 111.682 72.8205 111.682C70.4584 111.682 68.3601 111.154 66.5195 110.105C64.685 109.056 63.2432 107.54 62.2002 105.577C61.1572 103.614 60.6418 101.319 60.6418 98.6994C60.6418 94.5089 61.8935 91.202 64.3967 88.7663C66.8999 86.3305 70.7959 85.1157 76.0845 85.1157C79.1031 85.1157 81.7659 85.6066 84.0666 86.5882C86.3735 87.5699 88.3307 89.0914 89.9443 91.1468C88.889 91.6867 86.8337 92.7604 83.766 94.374L82.8886 94.8648C81.9745 93.9506 80.9131 93.2696 79.6921 92.8095C78.4773 92.3493 77.1889 92.1223 75.833 92.1223C73.5874 92.1223 71.9125 92.7113 70.8143 93.8954C69.716 95.0795 69.1639 96.5336 69.1639 98.2638C69.1639 100.135 69.7528 101.644 70.937 102.792C72.115 103.939 73.9249 104.51 76.3606 104.51C77.4159 104.51 78.4344 104.362 79.4344 104.056C80.4284 103.755 81.2628 103.227 81.9438 102.479H75.1029V96.7913V96.8036Z" fill="#F5F3EE"/>
<path d="M96.6809 108.191C94.1532 105.865 92.8893 102.595 92.8893 98.3865C92.8893 94.1776 94.147 90.9688 96.6625 88.6312C99.178 86.2875 103.123 85.1218 108.504 85.1218C113.884 85.1218 117.866 86.2875 120.382 88.6312C122.897 90.9688 124.155 94.2267 124.155 98.3865C124.155 102.546 122.903 105.896 120.4 108.215C117.897 110.528 113.927 111.688 108.504 111.688C103.08 111.688 99.2026 110.522 96.6748 108.197L96.6809 108.191ZM114.124 103.037C115.271 102.043 115.842 100.491 115.842 98.3865C115.842 96.282 115.271 94.7973 114.124 93.7911C112.976 92.7849 111.105 92.2818 108.51 92.2818C105.915 92.2818 104.074 92.7849 102.933 93.7911C101.786 94.7973 101.215 96.3311 101.215 98.3865C101.215 100.442 101.786 102.012 102.933 103.019C104.08 104.025 105.939 104.528 108.51 104.528C111.081 104.528 112.976 104.031 114.124 103.037Z" fill="#F5F3EE"/>
<path d="M135.358 83.9622C135.358 85.5328 135.297 88.5391 135.18 92.9811C135.131 93.6867 135.107 94.1959 135.107 94.5272C134.64 97.8281 134.346 100.699 134.229 103.16H127.738C127.622 100.699 127.327 97.8219 126.861 94.5272L126.824 92.9811C126.683 89.3797 126.615 86.3734 126.615 83.9622H135.352H135.358ZM135.039 112.038H126.898V105.792H135.039V112.038Z" fill="#F5F3EE"/>
<path d="M75.1029 130.315H90.0854V144.843H83.9071L83.1709 138.628C82.4714 140.849 81.2198 142.5 79.416 143.579C77.6122 144.653 75.4158 145.193 72.8205 145.193C70.4584 145.193 68.3601 144.665 66.5195 143.616C64.685 142.561 63.2432 141.052 62.2002 139.088C61.1572 137.125 60.6418 134.83 60.6418 132.211C60.6418 128.02 61.8935 124.713 64.3967 122.277C66.8999 119.842 70.7959 118.627 76.0845 118.627C79.1031 118.627 81.7659 119.118 84.0666 120.099C86.3735 121.081 88.3307 122.603 89.9443 124.658C88.889 125.198 86.8337 126.272 83.766 127.885L82.8886 128.376C81.9745 127.462 80.9131 126.781 79.6921 126.321C78.4773 125.861 77.1889 125.634 75.833 125.634C73.5874 125.634 71.9125 126.223 70.8143 127.407C69.716 128.591 69.1639 130.045 69.1639 131.775C69.1639 133.646 69.7528 135.156 70.937 136.303C72.115 137.45 73.9249 138.021 76.3606 138.021C77.4159 138.021 78.4344 137.874 79.4344 137.567C80.4284 137.266 81.2628 136.739 81.9438 135.99H75.1029V130.303V130.315Z" fill="#F5F3EE"/>
<path d="M96.6809 141.702C94.1532 139.377 92.8893 136.107 92.8893 131.898C92.8893 127.689 94.147 124.48 96.6625 122.142C99.178 119.799 103.123 118.633 108.504 118.633C113.884 118.633 117.866 119.799 120.382 122.142C122.897 124.48 124.155 127.738 124.155 131.898C124.155 136.057 122.903 139.407 120.4 141.727C117.897 144.04 113.927 145.199 108.504 145.199C103.08 145.199 99.2026 144.033 96.6748 141.708L96.6809 141.702ZM114.124 136.542C115.271 135.548 115.842 133.996 115.842 131.892C115.842 129.787 115.271 128.302 114.124 127.296C112.976 126.29 111.105 125.787 108.51 125.787C105.915 125.787 104.074 126.29 102.933 127.296C101.786 128.302 101.215 129.836 101.215 131.892C101.215 133.947 101.786 135.518 102.933 136.524C104.08 137.53 105.939 138.033 108.51 138.033C111.081 138.033 112.976 137.536 114.124 136.542Z" fill="#F5F3EE"/>
<path d="M135.358 117.473C135.358 119.044 135.297 122.05 135.18 126.492C135.131 127.198 135.107 127.707 135.107 128.038C134.64 131.339 134.346 134.211 134.229 136.671H127.738C127.622 134.211 127.327 131.333 126.861 128.038L126.824 126.492C126.683 122.891 126.615 119.885 126.615 117.473H135.352H135.358ZM135.039 145.543H126.898V139.297H135.039V145.543Z" fill="#F5F3EE"/>
</g>
<defs>
<clipPath id="clip0_1026_469">
<rect width="196" height="196" fill="white"/>
</clipPath>
</defs>
</svg>
