<svg width="332" height="200" viewBox="0 0 332 200" fill="none" xmlns="http://www.w3.org/2000/svg">
<g clip-path="url(#clip0_1026_460)">
<path d="M332 100C332 110.868 310.226 115.934 304.108 125.58C298.676 134.141 305.519 155.422 296.099 162.543C287.94 168.707 268.309 157.157 257.706 161.926C248.22 166.189 244.51 188.613 233.456 191.537C223.268 194.228 208.72 176.723 197.496 178.105C186.946 179.405 177.222 200.003 165.998 200.003C154.775 200.003 145.057 179.405 134.507 178.108C123.284 176.726 108.735 194.231 98.5472 191.54C87.4872 188.616 83.7733 166.192 74.2844 161.926C63.6817 157.157 44.0474 168.707 35.8879 162.54C26.4709 155.422 33.3173 134.141 27.8852 125.58C21.7738 115.931 0 110.868 0 100C0 89.1324 21.7738 84.0661 27.8918 74.4202C33.3238 65.8588 26.4807 44.5776 35.901 37.4567C44.0604 31.2896 63.6915 42.8431 74.2942 38.0741C83.7798 33.8113 87.4905 11.3869 98.544 8.46345C108.732 5.77187 123.28 23.2769 134.504 21.8952C145.054 20.5984 154.778 0 166.002 0C177.225 0 186.943 20.5984 197.493 21.8952C208.716 23.2769 223.265 5.77187 233.453 8.46345C244.513 11.3869 248.227 33.8113 257.716 38.0774C268.318 42.8464 287.953 31.2961 296.112 37.4633C305.529 44.5809 298.683 65.862 304.115 74.4235C310.229 84.0661 332.003 89.1324 332.003 99.9967L332 100Z" fill="#FF7E27"/>
<path d="M115.807 87.4828C118.489 90.5435 119.828 94.6854 119.828 99.9052V123.189H105.874V101.757C105.874 99.4806 105.279 97.6906 104.094 96.384C102.908 95.0807 101.317 94.4274 99.3246 94.4274C97.3321 94.4274 95.5977 95.0807 94.412 96.384C93.2263 97.6906 92.6318 99.4806 92.6318 101.757V123.189H78.6777V70.5037H92.6318V88.9462C93.8665 87.1431 95.5389 85.683 97.6522 84.5659C99.7623 83.452 102.196 82.8934 104.949 82.8934C109.506 82.8934 113.125 84.4221 115.807 87.4861V87.4828Z" fill="#F9D43A"/>
<path d="M165.466 106.03H139.051C139.194 108.215 139.799 109.842 140.867 110.91C141.935 111.975 143.3 112.51 144.959 112.51C147.285 112.51 148.948 111.468 149.944 109.378H164.822C164.205 112.132 163.006 114.588 161.226 116.747C159.446 118.906 157.202 120.605 154.497 121.836C151.793 123.071 148.801 123.685 145.528 123.685C141.585 123.685 138.087 122.855 135.026 121.193C131.966 119.533 129.568 117.159 127.837 114.075C126.103 110.988 125.237 107.359 125.237 103.181C125.237 99.0036 126.089 95.3843 127.801 92.3237C129.509 89.263 131.894 86.9046 134.954 85.2387C138.015 83.5793 141.54 82.7463 145.528 82.7463C149.516 82.7463 152.956 83.5532 155.993 85.1668C159.031 86.7804 161.406 89.0964 163.111 92.1081C164.819 95.123 165.675 98.6704 165.675 102.75C165.675 103.845 165.603 104.936 165.463 106.027L165.466 106.03ZM151.44 99.2649C151.44 97.5566 150.872 96.214 149.732 95.2406C148.592 94.2705 147.168 93.7838 145.459 93.7838C143.751 93.7838 142.35 94.2443 141.259 95.172C140.164 96.0964 139.452 97.4618 139.122 99.2649H151.44Z" fill="#F9D43A"/>
<path d="M185.329 70.5037V123.189H171.375V70.5037H185.329Z" fill="#F9D43A"/>
<path d="M207.256 70.5037V123.189H193.302V70.5037H207.256Z" fill="#F9D43A"/>
<path d="M223.098 121.196C219.94 119.537 217.461 117.162 215.657 114.079C213.854 110.992 212.953 107.363 212.953 103.185C212.953 99.007 213.864 95.4466 215.693 92.363C217.519 89.2762 220.012 86.908 223.17 85.2421C226.326 83.5827 229.899 82.7498 233.887 82.7498C237.875 82.7498 241.446 83.5794 244.601 85.2421C247.756 86.9047 250.249 89.2762 252.078 92.363C253.904 95.4498 254.818 99.056 254.818 103.185C254.818 107.314 253.904 110.933 252.078 114.043C250.252 117.152 247.747 119.537 244.568 121.196C241.387 122.859 237.807 123.689 233.819 123.689C229.83 123.689 226.26 122.859 223.105 121.196H223.098ZM238.689 109.411C239.995 107.964 240.645 105.886 240.645 103.182C240.645 100.477 239.992 98.4125 238.689 96.9883C237.382 95.5642 235.782 94.8521 233.884 94.8521C231.986 94.8521 230.395 95.5609 229.115 96.9883C227.835 98.4125 227.194 100.477 227.194 103.182C227.194 105.886 227.808 108.023 229.043 109.447C230.278 110.871 231.869 111.583 233.812 111.583C235.756 111.583 237.382 110.861 238.689 109.411Z" fill="#F9D43A"/>
</g>
<defs>
<clipPath id="clip0_1026_460">
<rect width="332" height="200" fill="white"/>
</clipPath>
</defs>
</svg>
