<svg width="176" height="176" viewBox="0 0 176 176" fill="none" xmlns="http://www.w3.org/2000/svg">
<g clip-path="url(#clip0_1026_389)">
<path d="M150.222 150.22C184.587 115.855 184.587 60.1384 150.222 25.7735C115.857 -8.59134 60.1409 -8.59135 25.776 25.7735C-8.5888 60.1384 -8.5888 115.855 25.776 150.22C60.1409 184.585 115.857 184.585 150.222 150.22Z" fill="#FF7E27"/>
<path d="M104.474 11.7544L106.309 12.3398L106.29 20.4501L110.979 13.8264L112.499 14.3131L112.519 22.4366L117.176 15.8063L118.958 16.3719L112.624 24.9361L110.94 24.3968L110.92 16.5627L106.388 22.9431L104.717 22.4103L104.481 11.7478L104.474 11.7544Z" fill="black"/>
<path d="M117.031 22.7589C118.044 20.7856 120.333 20.0686 122.346 21.1013C124.372 22.1406 125.128 24.4165 124.109 26.4095C124.017 26.5937 123.905 26.7779 123.793 26.9357L118.307 24.1205C118.037 25.1992 118.485 26.2319 119.531 26.7647C120.3 27.1594 121.135 27.1594 121.734 26.8239L123.346 27.6527C122.155 28.6657 120.405 28.8696 118.833 28.0605C116.781 27.0081 116.025 24.7322 117.038 22.7523L117.031 22.7589ZM118.932 22.9299L122.885 24.9558C123.129 23.9297 122.662 22.9233 121.675 22.4168C120.715 21.9235 119.636 22.1274 118.932 22.9299Z" fill="black"/>
<path d="M129.404 21.6736L130.752 22.6076L128.397 26.0083C129.358 25.732 130.364 25.8636 131.265 26.4885C132.982 27.679 133.324 29.9615 132.054 31.7835C130.792 33.6121 128.535 34.0923 126.819 32.9017C125.917 32.2769 125.437 31.3757 125.365 30.3825L124.76 31.2573L123.411 30.3233L129.41 21.6736H129.404ZM130.66 30.8166C131.41 29.7379 131.18 28.35 130.101 27.6001C129.022 26.8502 127.628 27.1134 126.878 28.1921C126.128 29.2708 126.371 30.6653 127.45 31.4152C128.529 32.165 129.91 31.8954 130.66 30.81V30.8166Z" fill="black"/>
<path d="M137.797 28.2578L140.665 30.9284C142.816 32.928 142.947 36.0064 140.98 38.1112C139.02 40.2161 135.942 40.3082 133.791 38.3086L130.923 35.638L137.79 28.2578H137.797ZM137.955 30.6455L133.317 35.6314L134.889 37.0983C136.304 38.4138 138.356 38.3283 139.678 36.9075C141 35.4867 140.941 33.4279 139.527 32.1124L137.955 30.6455Z" fill="black"/>
<path d="M140.954 40.0976C142.684 38.7031 145.065 38.9728 146.486 40.7357C147.92 42.5116 147.69 44.8928 145.947 46.3004C145.789 46.432 145.604 46.5569 145.44 46.649L141.566 41.8539C140.882 42.7287 140.875 43.8601 141.612 44.7678C142.151 45.4387 142.921 45.7808 143.598 45.715L144.736 47.1226C143.237 47.5633 141.553 47.0437 140.441 45.669C138.987 43.8732 139.224 41.4855 140.947 40.091L140.954 40.0976ZM142.625 41.0185L145.42 44.4718C146.058 43.6364 146.045 42.5248 145.341 41.6565C144.664 40.8146 143.598 40.5646 142.625 41.0185Z" fill="black"/>
<path d="M145.263 48.0435L146.157 49.4512C145.677 49.7603 145.644 50.4181 146.072 51.0824C146.466 51.7008 147.006 51.9244 147.4 51.6744C148.538 50.9509 145.71 47.8988 147.94 46.478C149.163 45.7019 150.531 46.1952 151.419 47.5897C152.327 49.017 152.163 50.4773 151.031 51.2008L150.137 49.7932C150.571 49.5169 150.604 48.925 150.229 48.333C149.86 47.7541 149.36 47.5371 148.972 47.7804C147.874 48.4777 150.683 51.5626 148.44 52.99C147.216 53.7662 145.795 53.3057 144.861 51.8323C143.894 50.3129 144.072 48.8 145.256 48.0435H145.263Z" fill="black"/>
<path d="M153.735 51.8388L154.504 53.2794L147.933 56.7919L147.164 55.3514L153.735 51.8388ZM155.603 50.5891C156.129 50.3062 156.734 50.497 157.01 51.0166C157.293 51.5429 157.122 52.1546 156.589 52.4308C156.076 52.7071 155.458 52.5229 155.175 51.9901C154.899 51.4771 155.083 50.8588 155.603 50.5825V50.5891Z" fill="black"/>
<path d="M152.248 56.4235C154.201 55.6013 156.293 56.4367 157.102 58.3639C157.523 59.3769 157.457 60.3833 157.03 61.2516L157.957 60.8635L158.589 62.3698L152.452 64.9417C150.36 65.8165 148.4 64.9943 147.505 62.8631C146.762 61.1003 147.144 59.3506 148.499 58.4692L149.15 60.0215C148.61 60.5149 148.499 61.4226 148.874 62.3106C149.38 63.5209 150.498 63.9945 151.755 63.4682L152.347 63.2183C151.419 62.9289 150.663 62.2579 150.235 61.2516C149.426 59.3243 150.288 57.2523 152.241 56.4301L152.248 56.4235ZM154.682 62.2316C155.813 61.758 156.293 60.4754 155.787 59.2651C155.28 58.0548 154.03 57.4957 152.899 57.9693C151.768 58.4429 151.301 59.7189 151.814 60.9292C152.32 62.1461 153.557 62.7052 154.688 62.2316H154.682Z" fill="black"/>
<path d="M159.411 64.8169L159.839 66.3955L158.924 66.6455C159.786 67.0336 160.391 67.7637 160.667 68.7767C161.128 70.4803 160.312 71.934 158.602 72.3944L154.077 73.6179L153.649 72.0392L157.655 70.9539C158.753 70.6579 159.299 69.7502 159.003 68.6649C158.694 67.5203 157.74 66.9612 156.629 67.2638L152.649 68.3426L152.222 66.7639L159.418 64.8169H159.411Z" fill="black"/>
<path d="M158.806 77.913C159.707 77.8078 160.45 78.4129 160.556 79.3009C160.661 80.202 160.069 80.9585 159.168 81.0637C158.267 81.169 157.523 80.5638 157.418 79.6627C157.313 78.7747 157.905 78.0182 158.806 77.913Z" fill="black"/>
<path d="M159.457 86.5101L165.653 86.7601L165.581 88.4835L159.418 88.2335C158.043 88.1809 156.964 89.1741 156.912 90.5489C156.859 91.9368 157.852 93.0024 159.227 93.055L165.39 93.3049L165.318 95.0415L159.122 94.7915C156.8 94.6994 155.136 92.8445 155.228 90.4765C155.32 88.1283 157.135 86.4115 159.457 86.5101Z" fill="black"/>
<path d="M164.904 97.758L164.66 99.4813L154.675 98.0737L154.919 96.3503L164.904 97.758Z" fill="black"/>
<path d="M164.016 107.151L163.647 108.763L152.116 100.152L152.485 98.5408L164.016 107.151Z" fill="black"/>
<path d="M156.458 108.309L162.279 110.44L161.687 112.058L155.892 109.933C154.603 109.46 153.268 110.078 152.801 111.367C152.32 112.67 152.945 113.992 154.234 114.465L160.029 116.59L159.431 118.221L153.61 116.09C151.426 115.288 150.406 113.018 151.222 110.795C152.031 108.585 154.281 107.506 156.458 108.309Z" fill="black"/>
<path d="M152.426 121.03L158.556 120.254L157.537 122.142L152.912 122.681L155.011 126.818L153.998 128.693L151.288 123.128L145.098 123.95L146.118 122.063L150.801 121.504L148.696 117.281L149.709 115.406L152.419 121.023L152.426 121.03Z" fill="black"/>
<path d="M145.769 129.772C146.486 130.324 146.604 131.278 146.058 131.982C145.506 132.699 144.559 132.837 143.835 132.284C143.118 131.732 143 130.778 143.552 130.061C144.092 129.351 145.045 129.219 145.762 129.772H145.769Z" fill="black"/>
<path d="M144.953 140.829L143.506 142.105L136.567 137.908L139.823 145.341L138.626 146.394L131.653 142.223L134.936 149.636L133.528 150.873L129.456 141.026L130.785 139.862L137.507 143.881L134.376 136.705L135.692 135.547L144.953 140.842V140.829Z" fill="black"/>
<path d="M129.048 145.933C130.219 147.821 129.66 150.149 127.733 151.347C125.799 152.55 123.457 152.031 122.273 150.13C122.168 149.959 122.063 149.761 121.984 149.584L127.22 146.321C126.437 145.532 125.312 145.387 124.319 146.005C123.589 146.459 123.155 147.176 123.135 147.86L121.596 148.821C121.339 147.275 122.063 145.67 123.562 144.736C125.523 143.512 127.864 144.039 129.042 145.926L129.048 145.933ZM127.924 147.472L124.148 149.82C124.898 150.557 126.009 150.676 126.95 150.09C127.871 149.518 128.246 148.492 127.917 147.472H127.924Z" fill="black"/>
<path d="M123.641 157.083L122.148 157.76L120.445 153.991C120.188 154.958 119.557 155.754 118.557 156.208C116.656 157.069 114.525 156.188 113.61 154.162C112.696 152.136 113.439 149.959 115.347 149.097C116.347 148.643 117.366 148.696 118.254 149.143L117.814 148.17L119.307 147.492L123.641 157.076V157.083ZM115.156 153.465C115.696 154.662 117.005 155.175 118.202 154.636C119.399 154.096 119.892 152.768 119.346 151.564C118.807 150.367 117.485 149.854 116.288 150.4C115.09 150.939 114.61 152.261 115.156 153.465Z" fill="black"/>
<path d="M113.63 160.911L109.868 161.989C107.046 162.798 104.343 161.325 103.547 158.556C102.751 155.787 104.264 153.103 107.092 152.294L110.854 151.215L113.63 160.911ZM111.506 159.819L109.631 153.274L107.566 153.866C105.711 154.399 104.724 156.201 105.257 158.069C105.79 159.937 107.585 160.944 109.44 160.411L111.506 159.819Z" fill="black"/>
<path d="M101.876 157.503C102.178 159.707 100.711 161.601 98.4685 161.91C96.2057 162.22 94.2851 160.786 93.9825 158.569C93.9562 158.365 93.9364 158.148 93.943 157.957L100.054 157.122C99.6591 156.083 98.6921 155.491 97.5344 155.648C96.6793 155.767 95.9953 156.24 95.6927 156.859L93.897 157.102C94.2916 155.589 95.6072 154.418 97.3634 154.175C99.6525 153.859 101.573 155.293 101.876 157.497V157.503ZM100.218 158.457L95.8177 159.062C96.2058 160.042 97.1661 160.601 98.2646 160.45C99.3367 160.305 100.1 159.523 100.218 158.457Z" fill="black"/>
<path d="M92.8314 157.082L91.1672 157.122C91.1541 156.55 90.6016 156.188 89.8188 156.201C89.0887 156.221 88.6151 156.563 88.6282 157.036C88.6611 158.378 92.7327 157.536 92.7985 160.18C92.8314 161.628 91.7 162.542 90.049 162.581C88.352 162.621 87.1943 161.726 87.1614 160.384L88.8256 160.345C88.8387 160.858 89.3255 161.193 90.0293 161.18C90.7134 161.167 91.1607 160.845 91.1475 160.391C91.1146 159.089 87.0299 159.904 86.9641 157.247C86.9312 155.8 88.0626 154.826 89.7991 154.78C91.5948 154.734 92.7985 155.675 92.838 157.076L92.8314 157.082Z" fill="black"/>
<path d="M85.3197 164.62C85.2868 165.219 84.8132 165.633 84.2344 165.607C83.6358 165.574 83.2082 165.114 83.2345 164.515C83.2674 163.93 83.741 163.502 84.3396 163.529C84.925 163.561 85.3526 164.035 85.3263 164.62H85.3197ZM85.2144 162.377L83.5832 162.292L83.9581 154.846L85.596 154.931L85.221 162.377H85.2144Z" fill="black"/>
<path d="M82.0639 158.74C81.7613 160.838 79.9656 162.2 77.9002 161.904C76.8149 161.746 75.9861 161.167 75.4664 160.351L75.3217 161.351L73.7036 161.114L74.6574 154.537C74.9797 152.294 76.7031 151.037 78.9855 151.366C80.8799 151.643 82.1823 152.866 82.2415 154.484L80.5773 154.241C80.4326 153.524 79.7156 152.965 78.7619 152.827C77.4595 152.636 76.486 153.353 76.2887 154.701L76.1966 155.339C76.9267 154.695 77.887 154.385 78.9724 154.543C81.0378 154.846 82.373 156.648 82.0705 158.74H82.0639ZM75.8348 157.832C75.6572 159.049 76.5057 160.115 77.8081 160.305C79.1105 160.496 80.2287 159.713 80.4063 158.497C80.5839 157.28 79.7288 156.227 78.4264 156.037C77.124 155.846 76.0124 156.615 75.8348 157.832Z" fill="black"/>
<path d="M71.1776 160.562L69.6055 160.115L69.8621 159.2C69.0859 159.74 68.1518 159.885 67.1389 159.595C65.4352 159.115 64.6196 157.661 65.0998 155.964L66.3824 151.452L67.9545 151.899L66.8231 155.892C66.514 156.99 67.0073 157.918 68.0926 158.227C69.2306 158.549 70.2041 158.023 70.5198 156.911L71.6446 152.945L73.2167 153.392L71.1776 160.562Z" fill="black"/>
<path d="M60.2521 153.3C59.8772 154.122 58.976 154.451 58.1604 154.083C57.3382 153.708 56.9896 152.813 57.3645 151.985C57.7394 151.162 58.6406 150.834 59.4694 151.208C60.2784 151.577 60.627 152.471 60.2521 153.3Z" fill="black"/>
<path d="M52.5626 149.433L49.1488 154.603L47.7082 153.649L51.1089 148.498C51.8654 147.354 51.5694 145.913 50.4248 145.157C49.2672 144.394 47.8398 144.697 47.0834 145.841L43.6827 150.991L42.229 150.031L45.6428 144.861C46.9255 142.921 49.3724 142.454 51.3457 143.756C53.3125 145.052 53.8387 147.486 52.5626 149.426V149.433Z" fill="black"/>
<path d="M40.1177 148.281L38.7693 147.183L45.1299 139.355L46.4784 140.454L40.1177 148.281Z" fill="black"/>
<path d="M32.5336 142.664L31.343 141.52L44.6695 136.086L45.86 137.231L32.5336 142.664Z" fill="black"/>
<path d="M35.4475 135.593L30.6261 139.487L29.5407 138.145L34.3425 134.271C35.4146 133.409 35.5659 131.949 34.7042 130.877C33.8294 129.798 32.3823 129.653 31.3101 130.515L26.5084 134.389L25.4165 133.034L30.238 129.14C32.0468 127.68 34.5201 127.976 36.0066 129.818C37.4866 131.646 37.2498 134.126 35.4409 135.586L35.4475 135.593Z" fill="black"/>
<path d="M26.6136 125.588L24.1206 131.245L23.0287 129.397L24.9494 125.154L20.3187 124.819L19.2334 122.984L25.4033 123.529L27.8831 117.794L28.975 119.642L27.0411 123.95L31.7442 124.325L32.8295 126.161L26.6136 125.595V125.588Z" fill="black"/>
<path d="M22.5353 115.393C21.6934 115.728 20.812 115.334 20.4897 114.505C20.1542 113.663 20.5291 112.775 21.3711 112.446C22.213 112.117 23.0944 112.505 23.4233 113.347C23.7522 114.176 23.3773 115.064 22.5353 115.393Z" fill="black"/>
<path d="M13.4779 108.979L13.1358 107.078L20.3121 103.309L12.2676 102.264L11.9847 100.698L19.1545 96.883L11.1165 95.8635L10.7876 94.0217L21.3185 95.6201L21.6343 97.3632L14.7211 101.04L22.4762 102.066L22.7854 103.79L13.4713 108.986L13.4779 108.979Z" fill="black"/>
<path d="M17.3391 92.7459C15.1159 92.7788 13.4056 91.0949 13.3728 88.8321C13.3333 86.5497 14.9909 84.8132 17.2273 84.7803C17.4312 84.7803 17.6483 84.7869 17.839 84.8132L17.9377 90.9831C19.0164 90.72 19.7203 89.832 19.7005 88.6611C19.6874 87.7994 19.2927 87.0562 18.7204 86.6878L18.6941 84.8724C20.1478 85.4512 21.1542 86.8917 21.1805 88.6611C21.22 90.9699 19.5624 92.7064 17.3391 92.7459ZM16.5958 90.9831L16.5235 86.5365C15.5039 86.7996 14.833 87.6876 14.8462 88.7993C14.8659 89.878 15.55 90.7331 16.5893 90.9765L16.5958 90.9831Z" fill="black"/>
<path d="M10.5706 82.3399L10.7613 80.7152L14.8724 81.1954C14.1751 80.485 13.8134 79.5246 13.9449 78.4393C14.1883 76.3607 16.0366 74.9926 18.2468 75.2491C20.4569 75.5056 21.9434 77.2685 21.7001 79.347C21.5751 80.4389 21.0028 81.2809 20.1609 81.8137L21.2199 81.9386L21.0291 83.5633L10.5771 82.3399H10.5706ZM18.0428 76.9264C16.7339 76.7751 15.6222 77.6302 15.471 78.9392C15.3197 80.2482 16.2077 81.3467 17.51 81.5045C18.819 81.6558 19.9306 80.7875 20.0885 79.4786C20.2398 78.1696 19.3518 77.0843 18.0428 76.9264Z" fill="black"/>
<path d="M12.4387 71.7958L13.4517 68.0137C14.2081 65.1787 16.8655 63.6197 19.6479 64.363C22.4303 65.1063 23.9497 67.7834 23.1933 70.625L22.1803 74.4072L12.4387 71.8024V71.7958ZM14.4712 70.5395L21.049 72.3023L21.6081 70.2238C22.108 68.3623 21.0687 66.5863 19.194 66.0798C17.3194 65.5799 15.5302 66.5994 15.0303 68.4609L14.4712 70.5395Z" fill="black"/>
<path d="M21.4106 63.4682C19.3649 62.5934 18.4967 60.357 19.3912 58.2784C20.2858 56.1801 22.5091 55.2724 24.5613 56.1538C24.7521 56.2328 24.9428 56.3314 25.1073 56.4367L22.6801 62.1067C23.772 62.304 24.7784 61.7778 25.2388 60.7056C25.5809 59.9097 25.5217 59.0809 25.1467 58.5021L25.8571 56.8379C26.949 57.9561 27.2779 59.6861 26.5807 61.3108C25.6729 63.4354 23.4563 64.3431 21.4106 63.4682ZM21.45 61.5607L23.1997 57.4759C22.1604 57.3049 21.1869 57.8377 20.7462 58.8573C20.3187 59.8505 20.6015 60.9095 21.45 61.5607Z" fill="black"/>
<path d="M26.4295 55.9435L27.2517 54.4964C27.7451 54.7792 28.3436 54.4964 28.7317 53.8123C29.0935 53.1808 29.0409 52.5954 28.6331 52.3586C27.4688 51.6943 26.0875 55.6146 23.7919 54.3056C22.5355 53.5887 22.3316 52.1481 23.1538 50.7142C23.9958 49.2408 25.3574 48.708 26.5216 49.3723L25.6994 50.8194C25.2587 50.5629 24.7127 50.8129 24.3641 51.418C24.0221 52.0166 24.0681 52.5625 24.4628 52.7862C25.5941 53.4308 27.0018 49.5105 29.3106 50.826C30.5669 51.543 30.8169 53.0164 29.9618 54.5227C29.0738 56.0816 27.6464 56.6341 26.4295 55.9369V55.9435Z" fill="black"/>
<path d="M23.8577 45.6097C23.3578 45.2743 23.2525 44.656 23.5814 44.1692C23.9169 43.6693 24.5352 43.5443 25.0285 43.8798C25.5153 44.2087 25.6337 44.8336 25.2982 45.3335C24.9693 45.8202 24.3444 45.9386 23.8577 45.6097ZM25.8376 46.6753L26.7519 45.3203L32.9283 49.4972L32.014 50.8522L25.8376 46.6753Z" fill="black"/>
<path d="M30.5801 45.8531C28.9422 44.5047 28.6988 42.2683 30.0275 40.6502C30.7248 39.8016 31.6457 39.3872 32.6126 39.3675L31.8364 38.7295L32.8757 37.4666L38.0129 41.6894C39.7626 43.13 39.9533 45.248 38.4865 47.0306C37.2696 48.5105 35.5528 48.9907 34.1386 48.208L35.2042 46.9056C35.8949 47.149 36.7434 46.8266 37.3551 46.0834C38.1905 45.0638 38.0852 43.8601 37.0328 42.9984L36.5329 42.5906C36.7105 43.5509 36.4737 44.531 35.7765 45.373C34.4478 46.9911 32.2179 47.195 30.5801 45.8531ZM34.5793 40.9856C33.6321 40.2095 32.2771 40.3805 31.4418 41.3935C30.6064 42.413 30.6985 43.7746 31.6457 44.5508C32.5929 45.3269 33.9347 45.1493 34.7701 44.1298C35.6054 43.1168 35.5265 41.7618 34.5727 40.9791L34.5793 40.9856Z" fill="black"/>
<path d="M34.6318 35.6184L35.829 34.5002L36.4802 35.1908C36.421 34.2502 36.7762 33.3688 37.5458 32.6518C38.835 31.4415 40.4992 31.4876 41.7095 32.7768L44.9194 36.2038L43.7222 37.322L40.8872 34.2897C40.1111 33.4543 39.0521 33.4017 38.2364 34.1713C37.3747 34.9803 37.3287 36.0854 38.118 36.9273L40.9333 39.9399L39.7361 41.0581L34.6384 35.6184H34.6318Z" fill="black"/>
<path d="M46.4914 29.9878C45.9783 29.2446 46.1625 28.2974 46.8926 27.7909C47.6359 27.2778 48.5831 27.4423 49.1027 28.1855C49.6158 28.9288 49.4316 29.876 48.6883 30.3891C47.9516 30.8956 47.0044 30.7311 46.4914 29.9878Z" fill="black"/>
<path d="M53.7797 25.3769L51.0959 19.7858L52.6483 19.0425L55.3188 24.6073C55.9108 25.8439 57.2987 26.3306 58.5353 25.7386C59.7851 25.1401 60.2587 23.7587 59.6667 22.5221L56.9962 16.9574L58.5617 16.2075L61.2454 21.7986C62.2518 23.8969 61.3967 26.232 59.2589 27.2581C57.1343 28.2776 54.7795 27.4817 53.7731 25.3834L53.7797 25.3769Z" fill="black"/>
<path d="M61.1663 15.2932L62.8041 14.7012L66.2311 24.1862L64.5933 24.7782L61.1663 15.2932Z" fill="black"/>
<path d="M69.9146 11.6819L71.5065 11.2544L69.27 25.4754L67.6782 25.903L69.9146 11.6819Z" fill="black"/>
<path d="M74.4401 17.8387L73.6047 11.6951L75.3149 11.4649L76.1503 17.5756C76.3345 18.9372 77.5053 19.8252 78.8669 19.641C80.2417 19.4502 81.1165 18.286 80.9323 16.9244L80.0969 10.8137L81.8203 10.5769L82.6557 16.7205C82.9714 19.0227 81.4388 20.9894 79.0906 21.3052C76.762 21.6209 74.7558 20.1409 74.4401 17.8387Z" fill="black"/>
<path d="M87.6021 15.4378L84.0896 10.3533L86.2405 10.3862L88.8519 14.2473L91.5619 10.4717L93.6931 10.5046L90.003 15.4773L93.5944 20.5948L91.4435 20.5619L88.7861 16.6613L86.0037 20.4764L83.8726 20.4435L87.6087 15.4444L87.6021 15.4378Z" fill="black"/>
<path d="M98.2515 14.392C99.1527 14.2868 99.896 14.8919 100.001 15.7799C100.106 16.681 99.5145 17.4375 98.6133 17.5427C97.7122 17.648 96.9689 17.0428 96.8636 16.1417C96.7584 15.2537 97.3504 14.4972 98.2515 14.392Z" fill="black"/>
<path d="M134.915 85.2142C134.915 85.2142 113.334 108.999 86.7074 108.999C60.0808 108.999 38.4993 85.2142 38.4993 85.2142C38.4993 85.2142 60.0808 61.4292 86.7074 61.4292C113.334 61.4292 134.915 85.2142 134.915 85.2142Z" fill="#F5F3EE"/>
<path d="M99.2139 97.7132C106.119 90.8084 106.119 79.6135 99.2139 72.7087C92.3091 65.8038 81.1141 65.8038 74.2093 72.7086C67.3045 79.6135 67.3045 90.8084 74.2093 97.7132C81.1141 104.618 92.3091 104.618 99.2139 97.7132Z" fill="black"/>
</g>
<defs>
<clipPath id="clip0_1026_389">
<rect width="176" height="176" fill="white"/>
</clipPath>
</defs>
</svg>
