<svg width="124" height="116" viewBox="0 0 124 116" fill="none" xmlns="http://www.w3.org/2000/svg">
<g clip-path="url(#clip0_1024_2430)" filter="url(#filter0_d_1024_2430)">
<path d="M88.4413 0C81.6257 0 75.3464 2.54513 70 7.29418C64.6536 2.54513 58.3687 0 51.5587 0C30.9553 0 16 23.1299 16 55.0028C16 86.8757 30.9553 110.006 51.5587 110.006C58.3687 110.006 64.6536 107.46 70 102.711C75.3464 107.46 81.6313 110.006 88.4413 110.006C109.045 110.006 124 86.8757 124 55.0028C124 23.1299 109.045 0 88.4413 0Z" fill="#F5F3EE"/>
<path d="M51.5585 95.0592C62.9559 95.0592 72.1954 77.1253 72.1954 55.0027C72.1954 32.8802 62.9559 14.9463 51.5585 14.9463C40.1611 14.9463 30.9216 32.8802 30.9216 55.0027C30.9216 77.1253 40.1611 95.0592 51.5585 95.0592Z" fill="#F5F3EE"/>
<path d="M51.5586 97.196C38.7932 97.196 28.7932 78.6641 28.7932 55.0028C28.7932 31.3415 38.7932 12.8096 51.5586 12.8096C64.3239 12.8096 74.3239 31.3415 74.3239 55.0028C74.3239 78.6641 64.3239 97.196 51.5586 97.196ZM51.5586 17.0776C41.5306 17.0776 33.0558 34.446 33.0558 55.0028C33.0558 75.5596 41.5306 92.9281 51.5586 92.9281C61.5865 92.9281 70.0614 75.5596 70.0614 55.0028C70.0614 34.446 61.5865 17.0776 51.5586 17.0776Z" fill="black"/>
<path d="M55.9104 48.8329C54.4077 38.1881 49.3965 30.3625 43.4356 30.3625C36.2848 30.3625 30.4915 41.6171 30.4915 55.495C30.4915 69.373 36.2903 80.6275 43.4356 80.6275C49.3965 80.6275 54.4021 72.7963 55.9104 62.1571L44.3853 55.495L55.9104 48.8329Z" fill="black"/>
<path d="M88.4413 95.0592C99.8387 95.0592 109.078 77.1253 109.078 55.0027C109.078 32.8802 99.8387 14.9463 88.4413 14.9463C77.0439 14.9463 67.8044 32.8802 67.8044 55.0027C67.8044 77.1253 77.0439 95.0592 88.4413 95.0592Z" fill="#F5F3EE"/>
<path d="M88.4414 97.196C75.676 97.196 65.676 78.6641 65.676 55.0028C65.676 31.3415 75.676 12.8096 88.4414 12.8096C101.207 12.8096 111.207 31.3415 111.207 55.0028C111.207 78.6641 101.207 97.196 88.4414 97.196ZM88.4414 17.0776C78.4135 17.0776 69.9386 34.446 69.9386 55.0028C69.9386 75.5596 78.4135 92.9281 88.4414 92.9281C98.4693 92.9281 106.944 75.5596 106.944 55.0028C106.944 34.446 98.4693 17.0776 88.4414 17.0776Z" fill="black"/>
<path d="M92.7933 48.8329C91.2905 38.1881 86.2793 30.3625 80.3184 30.3625C73.1676 30.3625 67.3743 41.6171 67.3743 55.495C67.3743 69.373 73.1731 80.6275 80.3184 80.6275C86.2793 80.6275 91.2849 72.7963 92.7933 62.1571L81.2681 55.495L92.7933 48.8329Z" fill="black"/>
</g>
<defs>
<filter id="filter0_d_1024_2430" x="0" y="0" width="124" height="116" filterUnits="userSpaceOnUse" color-interpolation-filters="sRGB">
<feFlood flood-opacity="0" result="BackgroundImageFix"/>
<feColorMatrix in="SourceAlpha" type="matrix" values="0 0 0 0 0 0 0 0 0 0 0 0 0 0 0 0 0 0 127 0" result="hardAlpha"/>
<feOffset dx="-16" dy="6"/>
<feColorMatrix type="matrix" values="0 0 0 0 0 0 0 0 0 0 0 0 0 0 0 0 0 0 0.12 0"/>
<feBlend mode="normal" in2="BackgroundImageFix" result="effect1_dropShadow_1024_2430"/>
<feBlend mode="normal" in="SourceGraphic" in2="effect1_dropShadow_1024_2430" result="shape"/>
</filter>
<clipPath id="clip0_1024_2430">
<rect width="108" height="110" fill="white" transform="translate(16)"/>
</clipPath>
</defs>
</svg>
