<svg width="1915" height="1080" viewBox="0 0 1915 1080" fill="none" xmlns="http://www.w3.org/2000/svg">
<g opacity="0.05">
<circle cx="12.5" cy="12.5" r="2.5" fill="#F5F3EE"/>
<circle cx="67.5" cy="12.5" r="2.5" fill="#F5F3EE"/>
<circle cx="122.5" cy="12.5" r="2.5" fill="#F5F3EE"/>
<circle cx="177.5" cy="12.5" r="2.5" fill="#F5F3EE"/>
<circle cx="232.5" cy="12.5" r="2.5" fill="#F5F3EE"/>
<circle cx="287.5" cy="12.5" r="2.5" fill="#F5F3EE"/>
<circle cx="342.5" cy="12.5" r="2.5" fill="#F5F3EE"/>
<circle cx="397.5" cy="12.5" r="2.5" fill="#F5F3EE"/>
<circle cx="452.5" cy="12.5" r="2.5" fill="#F5F3EE"/>
<circle cx="507.5" cy="12.5" r="2.5" fill="#F5F3EE"/>
<circle cx="562.5" cy="12.5" r="2.5" fill="#F5F3EE"/>
<circle cx="617.5" cy="12.5" r="2.5" fill="#F5F3EE"/>
<circle cx="672.5" cy="12.5" r="2.5" fill="#F5F3EE"/>
<circle cx="727.5" cy="12.5" r="2.5" fill="#F5F3EE"/>
<circle cx="782.5" cy="12.5" r="2.5" fill="#F5F3EE"/>
<circle cx="837.5" cy="12.5" r="2.5" fill="#F5F3EE"/>
<circle cx="892.5" cy="12.5" r="2.5" fill="#F5F3EE"/>
<circle cx="947.5" cy="12.5" r="2.5" fill="#F5F3EE"/>
<circle cx="1002.5" cy="12.5" r="2.5" fill="#F5F3EE"/>
<circle cx="1057.5" cy="12.5" r="2.5" fill="#F5F3EE"/>
<circle cx="1112.5" cy="12.5" r="2.5" fill="#F5F3EE"/>
<circle cx="1167.5" cy="12.5" r="2.5" fill="#F5F3EE"/>
<circle cx="1222.5" cy="12.5" r="2.5" fill="#F5F3EE"/>
<circle cx="1277.5" cy="12.5" r="2.5" fill="#F5F3EE"/>
<circle cx="1332.5" cy="12.5" r="2.5" fill="#F5F3EE"/>
<circle cx="1387.5" cy="12.5" r="2.5" fill="#F5F3EE"/>
<circle cx="1442.5" cy="12.5" r="2.5" fill="#F5F3EE"/>
<circle cx="1497.5" cy="12.5" r="2.5" fill="#F5F3EE"/>
<circle cx="1552.5" cy="12.5" r="2.5" fill="#F5F3EE"/>
<circle cx="1607.5" cy="12.5" r="2.5" fill="#F5F3EE"/>
<circle cx="1662.5" cy="12.5" r="2.5" fill="#F5F3EE"/>
<circle cx="1717.5" cy="12.5" r="2.5" fill="#F5F3EE"/>
<circle cx="1772.5" cy="12.5" r="2.5" fill="#F5F3EE"/>
<circle cx="1827.5" cy="12.5" r="2.5" fill="#F5F3EE"/>
<circle cx="1882.5" cy="12.5" r="2.5" fill="#F5F3EE"/>
<circle cx="12.5" cy="67.5" r="2.5" fill="#F5F3EE"/>
<circle cx="67.5" cy="67.5" r="2.5" fill="#F5F3EE"/>
<circle cx="122.5" cy="67.5" r="2.5" fill="#F5F3EE"/>
<circle cx="177.5" cy="67.5" r="2.5" fill="#F5F3EE"/>
<circle cx="232.5" cy="67.5" r="2.5" fill="#F5F3EE"/>
<circle cx="287.5" cy="67.5" r="2.5" fill="#F5F3EE"/>
<circle cx="342.5" cy="67.5" r="2.5" fill="#F5F3EE"/>
<circle cx="397.5" cy="67.5" r="2.5" fill="#F5F3EE"/>
<circle cx="452.5" cy="67.5" r="2.5" fill="#F5F3EE"/>
<circle cx="507.5" cy="67.5" r="2.5" fill="#F5F3EE"/>
<circle cx="562.5" cy="67.5" r="2.5" fill="#F5F3EE"/>
<circle cx="617.5" cy="67.5" r="2.5" fill="#F5F3EE"/>
<circle cx="672.5" cy="67.5" r="2.5" fill="#F5F3EE"/>
<circle cx="727.5" cy="67.5" r="2.5" fill="#F5F3EE"/>
<circle cx="782.5" cy="67.5" r="2.5" fill="#F5F3EE"/>
<circle cx="837.5" cy="67.5" r="2.5" fill="#F5F3EE"/>
<circle cx="892.5" cy="67.5" r="2.5" fill="#F5F3EE"/>
<circle cx="947.5" cy="67.5" r="2.5" fill="#F5F3EE"/>
<circle cx="1002.5" cy="67.5" r="2.5" fill="#F5F3EE"/>
<circle cx="1057.5" cy="67.5" r="2.5" fill="#F5F3EE"/>
<circle cx="1112.5" cy="67.5" r="2.5" fill="#F5F3EE"/>
<circle cx="1167.5" cy="67.5" r="2.5" fill="#F5F3EE"/>
<circle cx="1222.5" cy="67.5" r="2.5" fill="#F5F3EE"/>
<circle cx="1277.5" cy="67.5" r="2.5" fill="#F5F3EE"/>
<circle cx="1332.5" cy="67.5" r="2.5" fill="#F5F3EE"/>
<circle cx="1387.5" cy="67.5" r="2.5" fill="#F5F3EE"/>
<circle cx="1442.5" cy="67.5" r="2.5" fill="#F5F3EE"/>
<circle cx="1497.5" cy="67.5" r="2.5" fill="#F5F3EE"/>
<circle cx="1552.5" cy="67.5" r="2.5" fill="#F5F3EE"/>
<circle cx="1607.5" cy="67.5" r="2.5" fill="#F5F3EE"/>
<circle cx="1662.5" cy="67.5" r="2.5" fill="#F5F3EE"/>
<circle cx="1717.5" cy="67.5" r="2.5" fill="#F5F3EE"/>
<circle cx="1772.5" cy="67.5" r="2.5" fill="#F5F3EE"/>
<circle cx="1827.5" cy="67.5" r="2.5" fill="#F5F3EE"/>
<circle cx="1882.5" cy="67.5" r="2.5" fill="#F5F3EE"/>
<circle cx="12.5" cy="122.5" r="2.5" fill="#F5F3EE"/>
<circle cx="67.5" cy="122.5" r="2.5" fill="#F5F3EE"/>
<circle cx="122.5" cy="122.5" r="2.5" fill="#F5F3EE"/>
<circle cx="177.5" cy="122.5" r="2.5" fill="#F5F3EE"/>
<circle cx="232.5" cy="122.5" r="2.5" fill="#F5F3EE"/>
<circle cx="287.5" cy="122.5" r="2.5" fill="#F5F3EE"/>
<circle cx="342.5" cy="122.5" r="2.5" fill="#F5F3EE"/>
<circle cx="397.5" cy="122.5" r="2.5" fill="#F5F3EE"/>
<circle cx="452.5" cy="122.5" r="2.5" fill="#F5F3EE"/>
<circle cx="507.5" cy="122.5" r="2.5" fill="#F5F3EE"/>
<circle cx="562.5" cy="122.5" r="2.5" fill="#F5F3EE"/>
<circle cx="617.5" cy="122.5" r="2.5" fill="#F5F3EE"/>
<circle cx="672.5" cy="122.5" r="2.5" fill="#F5F3EE"/>
<circle cx="727.5" cy="122.5" r="2.5" fill="#F5F3EE"/>
<circle cx="782.5" cy="122.5" r="2.5" fill="#F5F3EE"/>
<circle cx="837.5" cy="122.5" r="2.5" fill="#F5F3EE"/>
<circle cx="892.5" cy="122.5" r="2.5" fill="#F5F3EE"/>
<circle cx="947.5" cy="122.5" r="2.5" fill="#F5F3EE"/>
<circle cx="1002.5" cy="122.5" r="2.5" fill="#F5F3EE"/>
<circle cx="1057.5" cy="122.5" r="2.5" fill="#F5F3EE"/>
<circle cx="1112.5" cy="122.5" r="2.5" fill="#F5F3EE"/>
<circle cx="1167.5" cy="122.5" r="2.5" fill="#F5F3EE"/>
<circle cx="1222.5" cy="122.5" r="2.5" fill="#F5F3EE"/>
<circle cx="1277.5" cy="122.5" r="2.5" fill="#F5F3EE"/>
<circle cx="1332.5" cy="122.5" r="2.5" fill="#F5F3EE"/>
<circle cx="1387.5" cy="122.5" r="2.5" fill="#F5F3EE"/>
<circle cx="1442.5" cy="122.5" r="2.5" fill="#F5F3EE"/>
<circle cx="1497.5" cy="122.5" r="2.5" fill="#F5F3EE"/>
<circle cx="1552.5" cy="122.5" r="2.5" fill="#F5F3EE"/>
<circle cx="1607.5" cy="122.5" r="2.5" fill="#F5F3EE"/>
<circle cx="1662.5" cy="122.5" r="2.5" fill="#F5F3EE"/>
<circle cx="1717.5" cy="122.5" r="2.5" fill="#F5F3EE"/>
<circle cx="1772.5" cy="122.5" r="2.5" fill="#F5F3EE"/>
<circle cx="1827.5" cy="122.5" r="2.5" fill="#F5F3EE"/>
<circle cx="1882.5" cy="122.5" r="2.5" fill="#F5F3EE"/>
<circle cx="12.5" cy="177.5" r="2.5" fill="#F5F3EE"/>
<circle cx="67.5" cy="177.5" r="2.5" fill="#F5F3EE"/>
<circle cx="122.5" cy="177.5" r="2.5" fill="#F5F3EE"/>
<circle cx="177.5" cy="177.5" r="2.5" fill="#F5F3EE"/>
<circle cx="232.5" cy="177.5" r="2.5" fill="#F5F3EE"/>
<circle cx="287.5" cy="177.5" r="2.5" fill="#F5F3EE"/>
<circle cx="342.5" cy="177.5" r="2.5" fill="#F5F3EE"/>
<circle cx="397.5" cy="177.5" r="2.5" fill="#F5F3EE"/>
<circle cx="452.5" cy="177.5" r="2.5" fill="#F5F3EE"/>
<circle cx="507.5" cy="177.5" r="2.5" fill="#F5F3EE"/>
<circle cx="562.5" cy="177.5" r="2.5" fill="#F5F3EE"/>
<circle cx="617.5" cy="177.5" r="2.5" fill="#F5F3EE"/>
<circle cx="672.5" cy="177.5" r="2.5" fill="#F5F3EE"/>
<circle cx="727.5" cy="177.5" r="2.5" fill="#F5F3EE"/>
<circle cx="782.5" cy="177.5" r="2.5" fill="#F5F3EE"/>
<circle cx="837.5" cy="177.5" r="2.5" fill="#F5F3EE"/>
<circle cx="892.5" cy="177.5" r="2.5" fill="#F5F3EE"/>
<circle cx="947.5" cy="177.5" r="2.5" fill="#F5F3EE"/>
<circle cx="1002.5" cy="177.5" r="2.5" fill="#F5F3EE"/>
<circle cx="1057.5" cy="177.5" r="2.5" fill="#F5F3EE"/>
<circle cx="1112.5" cy="177.5" r="2.5" fill="#F5F3EE"/>
<circle cx="1167.5" cy="177.5" r="2.5" fill="#F5F3EE"/>
<circle cx="1222.5" cy="177.5" r="2.5" fill="#F5F3EE"/>
<circle cx="1277.5" cy="177.5" r="2.5" fill="#F5F3EE"/>
<circle cx="1332.5" cy="177.5" r="2.5" fill="#F5F3EE"/>
<circle cx="1387.5" cy="177.5" r="2.5" fill="#F5F3EE"/>
<circle cx="1442.5" cy="177.5" r="2.5" fill="#F5F3EE"/>
<circle cx="1497.5" cy="177.5" r="2.5" fill="#F5F3EE"/>
<circle cx="1552.5" cy="177.5" r="2.5" fill="#F5F3EE"/>
<circle cx="1607.5" cy="177.5" r="2.5" fill="#F5F3EE"/>
<circle cx="1662.5" cy="177.5" r="2.5" fill="#F5F3EE"/>
<circle cx="1717.5" cy="177.5" r="2.5" fill="#F5F3EE"/>
<circle cx="1772.5" cy="177.5" r="2.5" fill="#F5F3EE"/>
<circle cx="1827.5" cy="177.5" r="2.5" fill="#F5F3EE"/>
<circle cx="1882.5" cy="177.5" r="2.5" fill="#F5F3EE"/>
<circle cx="12.5" cy="232.5" r="2.5" fill="#F5F3EE"/>
<circle cx="67.5" cy="232.5" r="2.5" fill="#F5F3EE"/>
<circle cx="122.5" cy="232.5" r="2.5" fill="#F5F3EE"/>
<circle cx="177.5" cy="232.5" r="2.5" fill="#F5F3EE"/>
<circle cx="232.5" cy="232.5" r="2.5" fill="#F5F3EE"/>
<circle cx="287.5" cy="232.5" r="2.5" fill="#F5F3EE"/>
<circle cx="342.5" cy="232.5" r="2.5" fill="#F5F3EE"/>
<circle cx="397.5" cy="232.5" r="2.5" fill="#F5F3EE"/>
<circle cx="452.5" cy="232.5" r="2.5" fill="#F5F3EE"/>
<circle cx="507.5" cy="232.5" r="2.5" fill="#F5F3EE"/>
<circle cx="562.5" cy="232.5" r="2.5" fill="#F5F3EE"/>
<circle cx="617.5" cy="232.5" r="2.5" fill="#F5F3EE"/>
<circle cx="672.5" cy="232.5" r="2.5" fill="#F5F3EE"/>
<circle cx="727.5" cy="232.5" r="2.5" fill="#F5F3EE"/>
<circle cx="782.5" cy="232.5" r="2.5" fill="#F5F3EE"/>
<circle cx="837.5" cy="232.5" r="2.5" fill="#F5F3EE"/>
<circle cx="892.5" cy="232.5" r="2.5" fill="#F5F3EE"/>
<circle cx="947.5" cy="232.5" r="2.5" fill="#F5F3EE"/>
<circle cx="1002.5" cy="232.5" r="2.5" fill="#F5F3EE"/>
<circle cx="1057.5" cy="232.5" r="2.5" fill="#F5F3EE"/>
<circle cx="1112.5" cy="232.5" r="2.5" fill="#F5F3EE"/>
<circle cx="1167.5" cy="232.5" r="2.5" fill="#F5F3EE"/>
<circle cx="1222.5" cy="232.5" r="2.5" fill="#F5F3EE"/>
<circle cx="1277.5" cy="232.5" r="2.5" fill="#F5F3EE"/>
<circle cx="1332.5" cy="232.5" r="2.5" fill="#F5F3EE"/>
<circle cx="1387.5" cy="232.5" r="2.5" fill="#F5F3EE"/>
<circle cx="1442.5" cy="232.5" r="2.5" fill="#F5F3EE"/>
<circle cx="1497.5" cy="232.5" r="2.5" fill="#F5F3EE"/>
<circle cx="1552.5" cy="232.5" r="2.5" fill="#F5F3EE"/>
<circle cx="1607.5" cy="232.5" r="2.5" fill="#F5F3EE"/>
<circle cx="1662.5" cy="232.5" r="2.5" fill="#F5F3EE"/>
<circle cx="1717.5" cy="232.5" r="2.5" fill="#F5F3EE"/>
<circle cx="1772.5" cy="232.5" r="2.5" fill="#F5F3EE"/>
<circle cx="1827.5" cy="232.5" r="2.5" fill="#F5F3EE"/>
<circle cx="1882.5" cy="232.5" r="2.5" fill="#F5F3EE"/>
<circle cx="12.5" cy="287.5" r="2.5" fill="#F5F3EE"/>
<circle cx="67.5" cy="287.5" r="2.5" fill="#F5F3EE"/>
<circle cx="122.5" cy="287.5" r="2.5" fill="#F5F3EE"/>
<circle cx="177.5" cy="287.5" r="2.5" fill="#F5F3EE"/>
<circle cx="232.5" cy="287.5" r="2.5" fill="#F5F3EE"/>
<circle cx="287.5" cy="287.5" r="2.5" fill="#F5F3EE"/>
<circle cx="342.5" cy="287.5" r="2.5" fill="#F5F3EE"/>
<circle cx="397.5" cy="287.5" r="2.5" fill="#F5F3EE"/>
<circle cx="452.5" cy="287.5" r="2.5" fill="#F5F3EE"/>
<circle cx="507.5" cy="287.5" r="2.5" fill="#F5F3EE"/>
<circle cx="562.5" cy="287.5" r="2.5" fill="#F5F3EE"/>
<circle cx="617.5" cy="287.5" r="2.5" fill="#F5F3EE"/>
<circle cx="672.5" cy="287.5" r="2.5" fill="#F5F3EE"/>
<circle cx="727.5" cy="287.5" r="2.5" fill="#F5F3EE"/>
<circle cx="782.5" cy="287.5" r="2.5" fill="#F5F3EE"/>
<circle cx="837.5" cy="287.5" r="2.5" fill="#F5F3EE"/>
<circle cx="892.5" cy="287.5" r="2.5" fill="#F5F3EE"/>
<circle cx="947.5" cy="287.5" r="2.5" fill="#F5F3EE"/>
<circle cx="1002.5" cy="287.5" r="2.5" fill="#F5F3EE"/>
<circle cx="1057.5" cy="287.5" r="2.5" fill="#F5F3EE"/>
<circle cx="1112.5" cy="287.5" r="2.5" fill="#F5F3EE"/>
<circle cx="1167.5" cy="287.5" r="2.5" fill="#F5F3EE"/>
<circle cx="1222.5" cy="287.5" r="2.5" fill="#F5F3EE"/>
<circle cx="1277.5" cy="287.5" r="2.5" fill="#F5F3EE"/>
<circle cx="1332.5" cy="287.5" r="2.5" fill="#F5F3EE"/>
<circle cx="1387.5" cy="287.5" r="2.5" fill="#F5F3EE"/>
<circle cx="1442.5" cy="287.5" r="2.5" fill="#F5F3EE"/>
<circle cx="1497.5" cy="287.5" r="2.5" fill="#F5F3EE"/>
<circle cx="1552.5" cy="287.5" r="2.5" fill="#F5F3EE"/>
<circle cx="1607.5" cy="287.5" r="2.5" fill="#F5F3EE"/>
<circle cx="1662.5" cy="287.5" r="2.5" fill="#F5F3EE"/>
<circle cx="1717.5" cy="287.5" r="2.5" fill="#F5F3EE"/>
<circle cx="1772.5" cy="287.5" r="2.5" fill="#F5F3EE"/>
<circle cx="1827.5" cy="287.5" r="2.5" fill="#F5F3EE"/>
<circle cx="1882.5" cy="287.5" r="2.5" fill="#F5F3EE"/>
<circle cx="12.5" cy="342.5" r="2.5" fill="#F5F3EE"/>
<circle cx="67.5" cy="342.5" r="2.5" fill="#F5F3EE"/>
<circle cx="122.5" cy="342.5" r="2.5" fill="#F5F3EE"/>
<circle cx="177.5" cy="342.5" r="2.5" fill="#F5F3EE"/>
<circle cx="232.5" cy="342.5" r="2.5" fill="#F5F3EE"/>
<circle cx="287.5" cy="342.5" r="2.5" fill="#F5F3EE"/>
<circle cx="342.5" cy="342.5" r="2.5" fill="#F5F3EE"/>
<circle cx="397.5" cy="342.5" r="2.5" fill="#F5F3EE"/>
<circle cx="452.5" cy="342.5" r="2.5" fill="#F5F3EE"/>
<circle cx="507.5" cy="342.5" r="2.5" fill="#F5F3EE"/>
<circle cx="562.5" cy="342.5" r="2.5" fill="#F5F3EE"/>
<circle cx="617.5" cy="342.5" r="2.5" fill="#F5F3EE"/>
<circle cx="672.5" cy="342.5" r="2.5" fill="#F5F3EE"/>
<circle cx="727.5" cy="342.5" r="2.5" fill="#F5F3EE"/>
<circle cx="782.5" cy="342.5" r="2.5" fill="#F5F3EE"/>
<circle cx="837.5" cy="342.5" r="2.5" fill="#F5F3EE"/>
<circle cx="892.5" cy="342.5" r="2.5" fill="#F5F3EE"/>
<circle cx="947.5" cy="342.5" r="2.5" fill="#F5F3EE"/>
<circle cx="1002.5" cy="342.5" r="2.5" fill="#F5F3EE"/>
<circle cx="1057.5" cy="342.5" r="2.5" fill="#F5F3EE"/>
<circle cx="1112.5" cy="342.5" r="2.5" fill="#F5F3EE"/>
<circle cx="1167.5" cy="342.5" r="2.5" fill="#F5F3EE"/>
<circle cx="1222.5" cy="342.5" r="2.5" fill="#F5F3EE"/>
<circle cx="1277.5" cy="342.5" r="2.5" fill="#F5F3EE"/>
<circle cx="1332.5" cy="342.5" r="2.5" fill="#F5F3EE"/>
<circle cx="1387.5" cy="342.5" r="2.5" fill="#F5F3EE"/>
<circle cx="1442.5" cy="342.5" r="2.5" fill="#F5F3EE"/>
<circle cx="1497.5" cy="342.5" r="2.5" fill="#F5F3EE"/>
<circle cx="1552.5" cy="342.5" r="2.5" fill="#F5F3EE"/>
<circle cx="1607.5" cy="342.5" r="2.5" fill="#F5F3EE"/>
<circle cx="1662.5" cy="342.5" r="2.5" fill="#F5F3EE"/>
<circle cx="1717.5" cy="342.5" r="2.5" fill="#F5F3EE"/>
<circle cx="1772.5" cy="342.5" r="2.5" fill="#F5F3EE"/>
<circle cx="1827.5" cy="342.5" r="2.5" fill="#F5F3EE"/>
<circle cx="1882.5" cy="342.5" r="2.5" fill="#F5F3EE"/>
<circle cx="12.5" cy="397.5" r="2.5" fill="#F5F3EE"/>
<circle cx="67.5" cy="397.5" r="2.5" fill="#F5F3EE"/>
<circle cx="122.5" cy="397.5" r="2.5" fill="#F5F3EE"/>
<circle cx="177.5" cy="397.5" r="2.5" fill="#F5F3EE"/>
<circle cx="232.5" cy="397.5" r="2.5" fill="#F5F3EE"/>
<circle cx="287.5" cy="397.5" r="2.5" fill="#F5F3EE"/>
<circle cx="342.5" cy="397.5" r="2.5" fill="#F5F3EE"/>
<circle cx="397.5" cy="397.5" r="2.5" fill="#F5F3EE"/>
<circle cx="452.5" cy="397.5" r="2.5" fill="#F5F3EE"/>
<circle cx="507.5" cy="397.5" r="2.5" fill="#F5F3EE"/>
<circle cx="562.5" cy="397.5" r="2.5" fill="#F5F3EE"/>
<circle cx="617.5" cy="397.5" r="2.5" fill="#F5F3EE"/>
<circle cx="672.5" cy="397.5" r="2.5" fill="#F5F3EE"/>
<circle cx="727.5" cy="397.5" r="2.5" fill="#F5F3EE"/>
<circle cx="782.5" cy="397.5" r="2.5" fill="#F5F3EE"/>
<circle cx="837.5" cy="397.5" r="2.5" fill="#F5F3EE"/>
<circle cx="892.5" cy="397.5" r="2.5" fill="#F5F3EE"/>
<circle cx="947.5" cy="397.5" r="2.5" fill="#F5F3EE"/>
<circle cx="1002.5" cy="397.5" r="2.5" fill="#F5F3EE"/>
<circle cx="1057.5" cy="397.5" r="2.5" fill="#F5F3EE"/>
<circle cx="1112.5" cy="397.5" r="2.5" fill="#F5F3EE"/>
<circle cx="1167.5" cy="397.5" r="2.5" fill="#F5F3EE"/>
<circle cx="1222.5" cy="397.5" r="2.5" fill="#F5F3EE"/>
<circle cx="1277.5" cy="397.5" r="2.5" fill="#F5F3EE"/>
<circle cx="1332.5" cy="397.5" r="2.5" fill="#F5F3EE"/>
<circle cx="1387.5" cy="397.5" r="2.5" fill="#F5F3EE"/>
<circle cx="1442.5" cy="397.5" r="2.5" fill="#F5F3EE"/>
<circle cx="1497.5" cy="397.5" r="2.5" fill="#F5F3EE"/>
<circle cx="1552.5" cy="397.5" r="2.5" fill="#F5F3EE"/>
<circle cx="1607.5" cy="397.5" r="2.5" fill="#F5F3EE"/>
<circle cx="1662.5" cy="397.5" r="2.5" fill="#F5F3EE"/>
<circle cx="1717.5" cy="397.5" r="2.5" fill="#F5F3EE"/>
<circle cx="1772.5" cy="397.5" r="2.5" fill="#F5F3EE"/>
<circle cx="1827.5" cy="397.5" r="2.5" fill="#F5F3EE"/>
<circle cx="1882.5" cy="397.5" r="2.5" fill="#F5F3EE"/>
<circle cx="12.5" cy="452.5" r="2.5" fill="#F5F3EE"/>
<circle cx="67.5" cy="452.5" r="2.5" fill="#F5F3EE"/>
<circle cx="122.5" cy="452.5" r="2.5" fill="#F5F3EE"/>
<circle cx="177.5" cy="452.5" r="2.5" fill="#F5F3EE"/>
<circle cx="232.5" cy="452.5" r="2.5" fill="#F5F3EE"/>
<circle cx="287.5" cy="452.5" r="2.5" fill="#F5F3EE"/>
<circle cx="342.5" cy="452.5" r="2.5" fill="#F5F3EE"/>
<circle cx="397.5" cy="452.5" r="2.5" fill="#F5F3EE"/>
<circle cx="452.5" cy="452.5" r="2.5" fill="#F5F3EE"/>
<circle cx="507.5" cy="452.5" r="2.5" fill="#F5F3EE"/>
<circle cx="562.5" cy="452.5" r="2.5" fill="#F5F3EE"/>
<circle cx="617.5" cy="452.5" r="2.5" fill="#F5F3EE"/>
<circle cx="672.5" cy="452.5" r="2.5" fill="#F5F3EE"/>
<circle cx="727.5" cy="452.5" r="2.5" fill="#F5F3EE"/>
<circle cx="782.5" cy="452.5" r="2.5" fill="#F5F3EE"/>
<circle cx="837.5" cy="452.5" r="2.5" fill="#F5F3EE"/>
<circle cx="892.5" cy="452.5" r="2.5" fill="#F5F3EE"/>
<circle cx="947.5" cy="452.5" r="2.5" fill="#F5F3EE"/>
<circle cx="1002.5" cy="452.5" r="2.5" fill="#F5F3EE"/>
<circle cx="1057.5" cy="452.5" r="2.5" fill="#F5F3EE"/>
<circle cx="1112.5" cy="452.5" r="2.5" fill="#F5F3EE"/>
<circle cx="1167.5" cy="452.5" r="2.5" fill="#F5F3EE"/>
<circle cx="1222.5" cy="452.5" r="2.5" fill="#F5F3EE"/>
<circle cx="1277.5" cy="452.5" r="2.5" fill="#F5F3EE"/>
<circle cx="1332.5" cy="452.5" r="2.5" fill="#F5F3EE"/>
<circle cx="1387.5" cy="452.5" r="2.5" fill="#F5F3EE"/>
<circle cx="1442.5" cy="452.5" r="2.5" fill="#F5F3EE"/>
<circle cx="1497.5" cy="452.5" r="2.5" fill="#F5F3EE"/>
<circle cx="1552.5" cy="452.5" r="2.5" fill="#F5F3EE"/>
<circle cx="1607.5" cy="452.5" r="2.5" fill="#F5F3EE"/>
<circle cx="1662.5" cy="452.5" r="2.5" fill="#F5F3EE"/>
<circle cx="1717.5" cy="452.5" r="2.5" fill="#F5F3EE"/>
<circle cx="1772.5" cy="452.5" r="2.5" fill="#F5F3EE"/>
<circle cx="1827.5" cy="452.5" r="2.5" fill="#F5F3EE"/>
<circle cx="1882.5" cy="452.5" r="2.5" fill="#F5F3EE"/>
<circle cx="12.5" cy="507.5" r="2.5" fill="#F5F3EE"/>
<circle cx="67.5" cy="507.5" r="2.5" fill="#F5F3EE"/>
<circle cx="122.5" cy="507.5" r="2.5" fill="#F5F3EE"/>
<circle cx="177.5" cy="507.5" r="2.5" fill="#F5F3EE"/>
<circle cx="232.5" cy="507.5" r="2.5" fill="#F5F3EE"/>
<circle cx="287.5" cy="507.5" r="2.5" fill="#F5F3EE"/>
<circle cx="342.5" cy="507.5" r="2.5" fill="#F5F3EE"/>
<circle cx="397.5" cy="507.5" r="2.5" fill="#F5F3EE"/>
<circle cx="452.5" cy="507.5" r="2.5" fill="#F5F3EE"/>
<circle cx="507.5" cy="507.5" r="2.5" fill="#F5F3EE"/>
<circle cx="562.5" cy="507.5" r="2.5" fill="#F5F3EE"/>
<circle cx="617.5" cy="507.5" r="2.5" fill="#F5F3EE"/>
<circle cx="672.5" cy="507.5" r="2.5" fill="#F5F3EE"/>
<circle cx="727.5" cy="507.5" r="2.5" fill="#F5F3EE"/>
<circle cx="782.5" cy="507.5" r="2.5" fill="#F5F3EE"/>
<circle cx="837.5" cy="507.5" r="2.5" fill="#F5F3EE"/>
<circle cx="892.5" cy="507.5" r="2.5" fill="#F5F3EE"/>
<circle cx="947.5" cy="507.5" r="2.5" fill="#F5F3EE"/>
<circle cx="1002.5" cy="507.5" r="2.5" fill="#F5F3EE"/>
<circle cx="1057.5" cy="507.5" r="2.5" fill="#F5F3EE"/>
<circle cx="1112.5" cy="507.5" r="2.5" fill="#F5F3EE"/>
<circle cx="1167.5" cy="507.5" r="2.5" fill="#F5F3EE"/>
<circle cx="1222.5" cy="507.5" r="2.5" fill="#F5F3EE"/>
<circle cx="1277.5" cy="507.5" r="2.5" fill="#F5F3EE"/>
<circle cx="1332.5" cy="507.5" r="2.5" fill="#F5F3EE"/>
<circle cx="1387.5" cy="507.5" r="2.5" fill="#F5F3EE"/>
<circle cx="1442.5" cy="507.5" r="2.5" fill="#F5F3EE"/>
<circle cx="1497.5" cy="507.5" r="2.5" fill="#F5F3EE"/>
<circle cx="1552.5" cy="507.5" r="2.5" fill="#F5F3EE"/>
<circle cx="1607.5" cy="507.5" r="2.5" fill="#F5F3EE"/>
<circle cx="1662.5" cy="507.5" r="2.5" fill="#F5F3EE"/>
<circle cx="1717.5" cy="507.5" r="2.5" fill="#F5F3EE"/>
<circle cx="1772.5" cy="507.5" r="2.5" fill="#F5F3EE"/>
<circle cx="1827.5" cy="507.5" r="2.5" fill="#F5F3EE"/>
<circle cx="1882.5" cy="507.5" r="2.5" fill="#F5F3EE"/>
<circle cx="12.5" cy="562.5" r="2.5" fill="#F5F3EE"/>
<circle cx="67.5" cy="562.5" r="2.5" fill="#F5F3EE"/>
<circle cx="122.5" cy="562.5" r="2.5" fill="#F5F3EE"/>
<circle cx="177.5" cy="562.5" r="2.5" fill="#F5F3EE"/>
<circle cx="232.5" cy="562.5" r="2.5" fill="#F5F3EE"/>
<circle cx="287.5" cy="562.5" r="2.5" fill="#F5F3EE"/>
<circle cx="342.5" cy="562.5" r="2.5" fill="#F5F3EE"/>
<circle cx="397.5" cy="562.5" r="2.5" fill="#F5F3EE"/>
<circle cx="452.5" cy="562.5" r="2.5" fill="#F5F3EE"/>
<circle cx="507.5" cy="562.5" r="2.5" fill="#F5F3EE"/>
<circle cx="562.5" cy="562.5" r="2.5" fill="#F5F3EE"/>
<circle cx="617.5" cy="562.5" r="2.5" fill="#F5F3EE"/>
<circle cx="672.5" cy="562.5" r="2.5" fill="#F5F3EE"/>
<circle cx="727.5" cy="562.5" r="2.5" fill="#F5F3EE"/>
<circle cx="782.5" cy="562.5" r="2.5" fill="#F5F3EE"/>
<circle cx="837.5" cy="562.5" r="2.5" fill="#F5F3EE"/>
<circle cx="892.5" cy="562.5" r="2.5" fill="#F5F3EE"/>
<circle cx="947.5" cy="562.5" r="2.5" fill="#F5F3EE"/>
<circle cx="1002.5" cy="562.5" r="2.5" fill="#F5F3EE"/>
<circle cx="1057.5" cy="562.5" r="2.5" fill="#F5F3EE"/>
<circle cx="1112.5" cy="562.5" r="2.5" fill="#F5F3EE"/>
<circle cx="1167.5" cy="562.5" r="2.5" fill="#F5F3EE"/>
<circle cx="1222.5" cy="562.5" r="2.5" fill="#F5F3EE"/>
<circle cx="1277.5" cy="562.5" r="2.5" fill="#F5F3EE"/>
<circle cx="1332.5" cy="562.5" r="2.5" fill="#F5F3EE"/>
<circle cx="1387.5" cy="562.5" r="2.5" fill="#F5F3EE"/>
<circle cx="1442.5" cy="562.5" r="2.5" fill="#F5F3EE"/>
<circle cx="1497.5" cy="562.5" r="2.5" fill="#F5F3EE"/>
<circle cx="1552.5" cy="562.5" r="2.5" fill="#F5F3EE"/>
<circle cx="1607.5" cy="562.5" r="2.5" fill="#F5F3EE"/>
<circle cx="1662.5" cy="562.5" r="2.5" fill="#F5F3EE"/>
<circle cx="1717.5" cy="562.5" r="2.5" fill="#F5F3EE"/>
<circle cx="1772.5" cy="562.5" r="2.5" fill="#F5F3EE"/>
<circle cx="1827.5" cy="562.5" r="2.5" fill="#F5F3EE"/>
<circle cx="1882.5" cy="562.5" r="2.5" fill="#F5F3EE"/>
<circle cx="12.5" cy="617.5" r="2.5" fill="#F5F3EE"/>
<circle cx="67.5" cy="617.5" r="2.5" fill="#F5F3EE"/>
<circle cx="122.5" cy="617.5" r="2.5" fill="#F5F3EE"/>
<circle cx="177.5" cy="617.5" r="2.5" fill="#F5F3EE"/>
<circle cx="232.5" cy="617.5" r="2.5" fill="#F5F3EE"/>
<circle cx="287.5" cy="617.5" r="2.5" fill="#F5F3EE"/>
<circle cx="342.5" cy="617.5" r="2.5" fill="#F5F3EE"/>
<circle cx="397.5" cy="617.5" r="2.5" fill="#F5F3EE"/>
<circle cx="452.5" cy="617.5" r="2.5" fill="#F5F3EE"/>
<circle cx="507.5" cy="617.5" r="2.5" fill="#F5F3EE"/>
<circle cx="562.5" cy="617.5" r="2.5" fill="#F5F3EE"/>
<circle cx="617.5" cy="617.5" r="2.5" fill="#F5F3EE"/>
<circle cx="672.5" cy="617.5" r="2.5" fill="#F5F3EE"/>
<circle cx="727.5" cy="617.5" r="2.5" fill="#F5F3EE"/>
<circle cx="782.5" cy="617.5" r="2.5" fill="#F5F3EE"/>
<circle cx="837.5" cy="617.5" r="2.5" fill="#F5F3EE"/>
<circle cx="892.5" cy="617.5" r="2.5" fill="#F5F3EE"/>
<circle cx="947.5" cy="617.5" r="2.5" fill="#F5F3EE"/>
<circle cx="1002.5" cy="617.5" r="2.5" fill="#F5F3EE"/>
<circle cx="1057.5" cy="617.5" r="2.5" fill="#F5F3EE"/>
<circle cx="1112.5" cy="617.5" r="2.5" fill="#F5F3EE"/>
<circle cx="1167.5" cy="617.5" r="2.5" fill="#F5F3EE"/>
<circle cx="1222.5" cy="617.5" r="2.5" fill="#F5F3EE"/>
<circle cx="1277.5" cy="617.5" r="2.5" fill="#F5F3EE"/>
<circle cx="1332.5" cy="617.5" r="2.5" fill="#F5F3EE"/>
<circle cx="1387.5" cy="617.5" r="2.5" fill="#F5F3EE"/>
<circle cx="1442.5" cy="617.5" r="2.5" fill="#F5F3EE"/>
<circle cx="1497.5" cy="617.5" r="2.5" fill="#F5F3EE"/>
<circle cx="1552.5" cy="617.5" r="2.5" fill="#F5F3EE"/>
<circle cx="1607.5" cy="617.5" r="2.5" fill="#F5F3EE"/>
<circle cx="1662.5" cy="617.5" r="2.5" fill="#F5F3EE"/>
<circle cx="1717.5" cy="617.5" r="2.5" fill="#F5F3EE"/>
<circle cx="1772.5" cy="617.5" r="2.5" fill="#F5F3EE"/>
<circle cx="1827.5" cy="617.5" r="2.5" fill="#F5F3EE"/>
<circle cx="1882.5" cy="617.5" r="2.5" fill="#F5F3EE"/>
<circle cx="12.5" cy="672.5" r="2.5" fill="#F5F3EE"/>
<circle cx="67.5" cy="672.5" r="2.5" fill="#F5F3EE"/>
<circle cx="122.5" cy="672.5" r="2.5" fill="#F5F3EE"/>
<circle cx="177.5" cy="672.5" r="2.5" fill="#F5F3EE"/>
<circle cx="232.5" cy="672.5" r="2.5" fill="#F5F3EE"/>
<circle cx="287.5" cy="672.5" r="2.5" fill="#F5F3EE"/>
<circle cx="342.5" cy="672.5" r="2.5" fill="#F5F3EE"/>
<circle cx="397.5" cy="672.5" r="2.5" fill="#F5F3EE"/>
<circle cx="452.5" cy="672.5" r="2.5" fill="#F5F3EE"/>
<circle cx="507.5" cy="672.5" r="2.5" fill="#F5F3EE"/>
<circle cx="562.5" cy="672.5" r="2.5" fill="#F5F3EE"/>
<circle cx="617.5" cy="672.5" r="2.5" fill="#F5F3EE"/>
<circle cx="672.5" cy="672.5" r="2.5" fill="#F5F3EE"/>
<circle cx="727.5" cy="672.5" r="2.5" fill="#F5F3EE"/>
<circle cx="782.5" cy="672.5" r="2.5" fill="#F5F3EE"/>
<circle cx="837.5" cy="672.5" r="2.5" fill="#F5F3EE"/>
<circle cx="892.5" cy="672.5" r="2.5" fill="#F5F3EE"/>
<circle cx="947.5" cy="672.5" r="2.5" fill="#F5F3EE"/>
<circle cx="1002.5" cy="672.5" r="2.5" fill="#F5F3EE"/>
<circle cx="1057.5" cy="672.5" r="2.5" fill="#F5F3EE"/>
<circle cx="1112.5" cy="672.5" r="2.5" fill="#F5F3EE"/>
<circle cx="1167.5" cy="672.5" r="2.5" fill="#F5F3EE"/>
<circle cx="1222.5" cy="672.5" r="2.5" fill="#F5F3EE"/>
<circle cx="1277.5" cy="672.5" r="2.5" fill="#F5F3EE"/>
<circle cx="1332.5" cy="672.5" r="2.5" fill="#F5F3EE"/>
<circle cx="1387.5" cy="672.5" r="2.5" fill="#F5F3EE"/>
<circle cx="1442.5" cy="672.5" r="2.5" fill="#F5F3EE"/>
<circle cx="1497.5" cy="672.5" r="2.5" fill="#F5F3EE"/>
<circle cx="1552.5" cy="672.5" r="2.5" fill="#F5F3EE"/>
<circle cx="1607.5" cy="672.5" r="2.5" fill="#F5F3EE"/>
<circle cx="1662.5" cy="672.5" r="2.5" fill="#F5F3EE"/>
<circle cx="1717.5" cy="672.5" r="2.5" fill="#F5F3EE"/>
<circle cx="1772.5" cy="672.5" r="2.5" fill="#F5F3EE"/>
<circle cx="1827.5" cy="672.5" r="2.5" fill="#F5F3EE"/>
<circle cx="1882.5" cy="672.5" r="2.5" fill="#F5F3EE"/>
<circle cx="12.5" cy="727.5" r="2.5" fill="#F5F3EE"/>
<circle cx="67.5" cy="727.5" r="2.5" fill="#F5F3EE"/>
<circle cx="122.5" cy="727.5" r="2.5" fill="#F5F3EE"/>
<circle cx="177.5" cy="727.5" r="2.5" fill="#F5F3EE"/>
<circle cx="232.5" cy="727.5" r="2.5" fill="#F5F3EE"/>
<circle cx="287.5" cy="727.5" r="2.5" fill="#F5F3EE"/>
<circle cx="342.5" cy="727.5" r="2.5" fill="#F5F3EE"/>
<circle cx="397.5" cy="727.5" r="2.5" fill="#F5F3EE"/>
<circle cx="452.5" cy="727.5" r="2.5" fill="#F5F3EE"/>
<circle cx="507.5" cy="727.5" r="2.5" fill="#F5F3EE"/>
<circle cx="562.5" cy="727.5" r="2.5" fill="#F5F3EE"/>
<circle cx="617.5" cy="727.5" r="2.5" fill="#F5F3EE"/>
<circle cx="672.5" cy="727.5" r="2.5" fill="#F5F3EE"/>
<circle cx="727.5" cy="727.5" r="2.5" fill="#F5F3EE"/>
<circle cx="782.5" cy="727.5" r="2.5" fill="#F5F3EE"/>
<circle cx="837.5" cy="727.5" r="2.5" fill="#F5F3EE"/>
<circle cx="892.5" cy="727.5" r="2.5" fill="#F5F3EE"/>
<circle cx="947.5" cy="727.5" r="2.5" fill="#F5F3EE"/>
<circle cx="1002.5" cy="727.5" r="2.5" fill="#F5F3EE"/>
<circle cx="1057.5" cy="727.5" r="2.5" fill="#F5F3EE"/>
<circle cx="1112.5" cy="727.5" r="2.5" fill="#F5F3EE"/>
<circle cx="1167.5" cy="727.5" r="2.5" fill="#F5F3EE"/>
<circle cx="1222.5" cy="727.5" r="2.5" fill="#F5F3EE"/>
<circle cx="1277.5" cy="727.5" r="2.5" fill="#F5F3EE"/>
<circle cx="1332.5" cy="727.5" r="2.5" fill="#F5F3EE"/>
<circle cx="1387.5" cy="727.5" r="2.5" fill="#F5F3EE"/>
<circle cx="1442.5" cy="727.5" r="2.5" fill="#F5F3EE"/>
<circle cx="1497.5" cy="727.5" r="2.5" fill="#F5F3EE"/>
<circle cx="1552.5" cy="727.5" r="2.5" fill="#F5F3EE"/>
<circle cx="1607.5" cy="727.5" r="2.5" fill="#F5F3EE"/>
<circle cx="1662.5" cy="727.5" r="2.5" fill="#F5F3EE"/>
<circle cx="1717.5" cy="727.5" r="2.5" fill="#F5F3EE"/>
<circle cx="1772.5" cy="727.5" r="2.5" fill="#F5F3EE"/>
<circle cx="1827.5" cy="727.5" r="2.5" fill="#F5F3EE"/>
<circle cx="1882.5" cy="727.5" r="2.5" fill="#F5F3EE"/>
<circle cx="12.5" cy="782.5" r="2.5" fill="#F5F3EE"/>
<circle cx="67.5" cy="782.5" r="2.5" fill="#F5F3EE"/>
<circle cx="122.5" cy="782.5" r="2.5" fill="#F5F3EE"/>
<circle cx="177.5" cy="782.5" r="2.5" fill="#F5F3EE"/>
<circle cx="232.5" cy="782.5" r="2.5" fill="#F5F3EE"/>
<circle cx="287.5" cy="782.5" r="2.5" fill="#F5F3EE"/>
<circle cx="342.5" cy="782.5" r="2.5" fill="#F5F3EE"/>
<circle cx="397.5" cy="782.5" r="2.5" fill="#F5F3EE"/>
<circle cx="452.5" cy="782.5" r="2.5" fill="#F5F3EE"/>
<circle cx="507.5" cy="782.5" r="2.5" fill="#F5F3EE"/>
<circle cx="562.5" cy="782.5" r="2.5" fill="#F5F3EE"/>
<circle cx="617.5" cy="782.5" r="2.5" fill="#F5F3EE"/>
<circle cx="672.5" cy="782.5" r="2.5" fill="#F5F3EE"/>
<circle cx="727.5" cy="782.5" r="2.5" fill="#F5F3EE"/>
<circle cx="782.5" cy="782.5" r="2.5" fill="#F5F3EE"/>
<circle cx="837.5" cy="782.5" r="2.5" fill="#F5F3EE"/>
<circle cx="892.5" cy="782.5" r="2.5" fill="#F5F3EE"/>
<circle cx="947.5" cy="782.5" r="2.5" fill="#F5F3EE"/>
<circle cx="1002.5" cy="782.5" r="2.5" fill="#F5F3EE"/>
<circle cx="1057.5" cy="782.5" r="2.5" fill="#F5F3EE"/>
<circle cx="1112.5" cy="782.5" r="2.5" fill="#F5F3EE"/>
<circle cx="1167.5" cy="782.5" r="2.5" fill="#F5F3EE"/>
<circle cx="1222.5" cy="782.5" r="2.5" fill="#F5F3EE"/>
<circle cx="1277.5" cy="782.5" r="2.5" fill="#F5F3EE"/>
<circle cx="1332.5" cy="782.5" r="2.5" fill="#F5F3EE"/>
<circle cx="1387.5" cy="782.5" r="2.5" fill="#F5F3EE"/>
<circle cx="1442.5" cy="782.5" r="2.5" fill="#F5F3EE"/>
<circle cx="1497.5" cy="782.5" r="2.5" fill="#F5F3EE"/>
<circle cx="1552.5" cy="782.5" r="2.5" fill="#F5F3EE"/>
<circle cx="1607.5" cy="782.5" r="2.5" fill="#F5F3EE"/>
<circle cx="1662.5" cy="782.5" r="2.5" fill="#F5F3EE"/>
<circle cx="1717.5" cy="782.5" r="2.5" fill="#F5F3EE"/>
<circle cx="1772.5" cy="782.5" r="2.5" fill="#F5F3EE"/>
<circle cx="1827.5" cy="782.5" r="2.5" fill="#F5F3EE"/>
<circle cx="1882.5" cy="782.5" r="2.5" fill="#F5F3EE"/>
<circle cx="12.5" cy="837.5" r="2.5" fill="#F5F3EE"/>
<circle cx="67.5" cy="837.5" r="2.5" fill="#F5F3EE"/>
<circle cx="122.5" cy="837.5" r="2.5" fill="#F5F3EE"/>
<circle cx="177.5" cy="837.5" r="2.5" fill="#F5F3EE"/>
<circle cx="232.5" cy="837.5" r="2.5" fill="#F5F3EE"/>
<circle cx="287.5" cy="837.5" r="2.5" fill="#F5F3EE"/>
<circle cx="342.5" cy="837.5" r="2.5" fill="#F5F3EE"/>
<circle cx="397.5" cy="837.5" r="2.5" fill="#F5F3EE"/>
<circle cx="452.5" cy="837.5" r="2.5" fill="#F5F3EE"/>
<circle cx="507.5" cy="837.5" r="2.5" fill="#F5F3EE"/>
<circle cx="562.5" cy="837.5" r="2.5" fill="#F5F3EE"/>
<circle cx="617.5" cy="837.5" r="2.5" fill="#F5F3EE"/>
<circle cx="672.5" cy="837.5" r="2.5" fill="#F5F3EE"/>
<circle cx="727.5" cy="837.5" r="2.5" fill="#F5F3EE"/>
<circle cx="782.5" cy="837.5" r="2.5" fill="#F5F3EE"/>
<circle cx="837.5" cy="837.5" r="2.5" fill="#F5F3EE"/>
<circle cx="892.5" cy="837.5" r="2.5" fill="#F5F3EE"/>
<circle cx="947.5" cy="837.5" r="2.5" fill="#F5F3EE"/>
<circle cx="1002.5" cy="837.5" r="2.5" fill="#F5F3EE"/>
<circle cx="1057.5" cy="837.5" r="2.5" fill="#F5F3EE"/>
<circle cx="1112.5" cy="837.5" r="2.5" fill="#F5F3EE"/>
<circle cx="1167.5" cy="837.5" r="2.5" fill="#F5F3EE"/>
<circle cx="1222.5" cy="837.5" r="2.5" fill="#F5F3EE"/>
<circle cx="1277.5" cy="837.5" r="2.5" fill="#F5F3EE"/>
<circle cx="1332.5" cy="837.5" r="2.5" fill="#F5F3EE"/>
<circle cx="1387.5" cy="837.5" r="2.5" fill="#F5F3EE"/>
<circle cx="1442.5" cy="837.5" r="2.5" fill="#F5F3EE"/>
<circle cx="1497.5" cy="837.5" r="2.5" fill="#F5F3EE"/>
<circle cx="1552.5" cy="837.5" r="2.5" fill="#F5F3EE"/>
<circle cx="1607.5" cy="837.5" r="2.5" fill="#F5F3EE"/>
<circle cx="1662.5" cy="837.5" r="2.5" fill="#F5F3EE"/>
<circle cx="1717.5" cy="837.5" r="2.5" fill="#F5F3EE"/>
<circle cx="1772.5" cy="837.5" r="2.5" fill="#F5F3EE"/>
<circle cx="1827.5" cy="837.5" r="2.5" fill="#F5F3EE"/>
<circle cx="1882.5" cy="837.5" r="2.5" fill="#F5F3EE"/>
<circle cx="12.5" cy="892.5" r="2.5" fill="#F5F3EE"/>
<circle cx="67.5" cy="892.5" r="2.5" fill="#F5F3EE"/>
<circle cx="122.5" cy="892.5" r="2.5" fill="#F5F3EE"/>
<circle cx="177.5" cy="892.5" r="2.5" fill="#F5F3EE"/>
<circle cx="232.5" cy="892.5" r="2.5" fill="#F5F3EE"/>
<circle cx="287.5" cy="892.5" r="2.5" fill="#F5F3EE"/>
<circle cx="342.5" cy="892.5" r="2.5" fill="#F5F3EE"/>
<circle cx="397.5" cy="892.5" r="2.5" fill="#F5F3EE"/>
<circle cx="452.5" cy="892.5" r="2.5" fill="#F5F3EE"/>
<circle cx="507.5" cy="892.5" r="2.5" fill="#F5F3EE"/>
<circle cx="562.5" cy="892.5" r="2.5" fill="#F5F3EE"/>
<circle cx="617.5" cy="892.5" r="2.5" fill="#F5F3EE"/>
<circle cx="672.5" cy="892.5" r="2.5" fill="#F5F3EE"/>
<circle cx="727.5" cy="892.5" r="2.5" fill="#F5F3EE"/>
<circle cx="782.5" cy="892.5" r="2.5" fill="#F5F3EE"/>
<circle cx="837.5" cy="892.5" r="2.5" fill="#F5F3EE"/>
<circle cx="892.5" cy="892.5" r="2.5" fill="#F5F3EE"/>
<circle cx="947.5" cy="892.5" r="2.5" fill="#F5F3EE"/>
<circle cx="1002.5" cy="892.5" r="2.5" fill="#F5F3EE"/>
<circle cx="1057.5" cy="892.5" r="2.5" fill="#F5F3EE"/>
<circle cx="1112.5" cy="892.5" r="2.5" fill="#F5F3EE"/>
<circle cx="1167.5" cy="892.5" r="2.5" fill="#F5F3EE"/>
<circle cx="1222.5" cy="892.5" r="2.5" fill="#F5F3EE"/>
<circle cx="1277.5" cy="892.5" r="2.5" fill="#F5F3EE"/>
<circle cx="1332.5" cy="892.5" r="2.5" fill="#F5F3EE"/>
<circle cx="1387.5" cy="892.5" r="2.5" fill="#F5F3EE"/>
<circle cx="1442.5" cy="892.5" r="2.5" fill="#F5F3EE"/>
<circle cx="1497.5" cy="892.5" r="2.5" fill="#F5F3EE"/>
<circle cx="1552.5" cy="892.5" r="2.5" fill="#F5F3EE"/>
<circle cx="1607.5" cy="892.5" r="2.5" fill="#F5F3EE"/>
<circle cx="1662.5" cy="892.5" r="2.5" fill="#F5F3EE"/>
<circle cx="1717.5" cy="892.5" r="2.5" fill="#F5F3EE"/>
<circle cx="1772.5" cy="892.5" r="2.5" fill="#F5F3EE"/>
<circle cx="1827.5" cy="892.5" r="2.5" fill="#F5F3EE"/>
<circle cx="1882.5" cy="892.5" r="2.5" fill="#F5F3EE"/>
<circle cx="12.5" cy="947.5" r="2.5" fill="#F5F3EE"/>
<circle cx="67.5" cy="947.5" r="2.5" fill="#F5F3EE"/>
<circle cx="122.5" cy="947.5" r="2.5" fill="#F5F3EE"/>
<circle cx="177.5" cy="947.5" r="2.5" fill="#F5F3EE"/>
<circle cx="232.5" cy="947.5" r="2.5" fill="#F5F3EE"/>
<circle cx="287.5" cy="947.5" r="2.5" fill="#F5F3EE"/>
<circle cx="342.5" cy="947.5" r="2.5" fill="#F5F3EE"/>
<circle cx="397.5" cy="947.5" r="2.5" fill="#F5F3EE"/>
<circle cx="452.5" cy="947.5" r="2.5" fill="#F5F3EE"/>
<circle cx="507.5" cy="947.5" r="2.5" fill="#F5F3EE"/>
<circle cx="562.5" cy="947.5" r="2.5" fill="#F5F3EE"/>
<circle cx="617.5" cy="947.5" r="2.5" fill="#F5F3EE"/>
<circle cx="672.5" cy="947.5" r="2.5" fill="#F5F3EE"/>
<circle cx="727.5" cy="947.5" r="2.5" fill="#F5F3EE"/>
<circle cx="782.5" cy="947.5" r="2.5" fill="#F5F3EE"/>
<circle cx="837.5" cy="947.5" r="2.5" fill="#F5F3EE"/>
<circle cx="892.5" cy="947.5" r="2.5" fill="#F5F3EE"/>
<circle cx="947.5" cy="947.5" r="2.5" fill="#F5F3EE"/>
<circle cx="1002.5" cy="947.5" r="2.5" fill="#F5F3EE"/>
<circle cx="1057.5" cy="947.5" r="2.5" fill="#F5F3EE"/>
<circle cx="1112.5" cy="947.5" r="2.5" fill="#F5F3EE"/>
<circle cx="1167.5" cy="947.5" r="2.5" fill="#F5F3EE"/>
<circle cx="1222.5" cy="947.5" r="2.5" fill="#F5F3EE"/>
<circle cx="1277.5" cy="947.5" r="2.5" fill="#F5F3EE"/>
<circle cx="1332.5" cy="947.5" r="2.5" fill="#F5F3EE"/>
<circle cx="1387.5" cy="947.5" r="2.5" fill="#F5F3EE"/>
<circle cx="1442.5" cy="947.5" r="2.5" fill="#F5F3EE"/>
<circle cx="1497.5" cy="947.5" r="2.5" fill="#F5F3EE"/>
<circle cx="1552.5" cy="947.5" r="2.5" fill="#F5F3EE"/>
<circle cx="1607.5" cy="947.5" r="2.5" fill="#F5F3EE"/>
<circle cx="1662.5" cy="947.5" r="2.5" fill="#F5F3EE"/>
<circle cx="1717.5" cy="947.5" r="2.5" fill="#F5F3EE"/>
<circle cx="1772.5" cy="947.5" r="2.5" fill="#F5F3EE"/>
<circle cx="1827.5" cy="947.5" r="2.5" fill="#F5F3EE"/>
<circle cx="1882.5" cy="947.5" r="2.5" fill="#F5F3EE"/>
<circle cx="12.5" cy="1002.5" r="2.5" fill="#F5F3EE"/>
<circle cx="67.5" cy="1002.5" r="2.5" fill="#F5F3EE"/>
<circle cx="122.5" cy="1002.5" r="2.5" fill="#F5F3EE"/>
<circle cx="177.5" cy="1002.5" r="2.5" fill="#F5F3EE"/>
<circle cx="232.5" cy="1002.5" r="2.5" fill="#F5F3EE"/>
<circle cx="287.5" cy="1002.5" r="2.5" fill="#F5F3EE"/>
<circle cx="342.5" cy="1002.5" r="2.5" fill="#F5F3EE"/>
<circle cx="397.5" cy="1002.5" r="2.5" fill="#F5F3EE"/>
<circle cx="452.5" cy="1002.5" r="2.5" fill="#F5F3EE"/>
<circle cx="507.5" cy="1002.5" r="2.5" fill="#F5F3EE"/>
<circle cx="562.5" cy="1002.5" r="2.5" fill="#F5F3EE"/>
<circle cx="617.5" cy="1002.5" r="2.5" fill="#F5F3EE"/>
<circle cx="672.5" cy="1002.5" r="2.5" fill="#F5F3EE"/>
<circle cx="727.5" cy="1002.5" r="2.5" fill="#F5F3EE"/>
<circle cx="782.5" cy="1002.5" r="2.5" fill="#F5F3EE"/>
<circle cx="837.5" cy="1002.5" r="2.5" fill="#F5F3EE"/>
<circle cx="892.5" cy="1002.5" r="2.5" fill="#F5F3EE"/>
<circle cx="947.5" cy="1002.5" r="2.5" fill="#F5F3EE"/>
<circle cx="1002.5" cy="1002.5" r="2.5" fill="#F5F3EE"/>
<circle cx="1057.5" cy="1002.5" r="2.5" fill="#F5F3EE"/>
<circle cx="1112.5" cy="1002.5" r="2.5" fill="#F5F3EE"/>
<circle cx="1167.5" cy="1002.5" r="2.5" fill="#F5F3EE"/>
<circle cx="1222.5" cy="1002.5" r="2.5" fill="#F5F3EE"/>
<circle cx="1277.5" cy="1002.5" r="2.5" fill="#F5F3EE"/>
<circle cx="1332.5" cy="1002.5" r="2.5" fill="#F5F3EE"/>
<circle cx="1387.5" cy="1002.5" r="2.5" fill="#F5F3EE"/>
<circle cx="1442.5" cy="1002.5" r="2.5" fill="#F5F3EE"/>
<circle cx="1497.5" cy="1002.5" r="2.5" fill="#F5F3EE"/>
<circle cx="1552.5" cy="1002.5" r="2.5" fill="#F5F3EE"/>
<circle cx="1607.5" cy="1002.5" r="2.5" fill="#F5F3EE"/>
<circle cx="1662.5" cy="1002.5" r="2.5" fill="#F5F3EE"/>
<circle cx="1717.5" cy="1002.5" r="2.5" fill="#F5F3EE"/>
<circle cx="1772.5" cy="1002.5" r="2.5" fill="#F5F3EE"/>
<circle cx="1827.5" cy="1002.5" r="2.5" fill="#F5F3EE"/>
<circle cx="1882.5" cy="1002.5" r="2.5" fill="#F5F3EE"/>
<circle cx="12.5" cy="1057.5" r="2.5" fill="#F5F3EE"/>
<circle cx="67.5" cy="1057.5" r="2.5" fill="#F5F3EE"/>
<circle cx="122.5" cy="1057.5" r="2.5" fill="#F5F3EE"/>
<circle cx="177.5" cy="1057.5" r="2.5" fill="#F5F3EE"/>
<circle cx="232.5" cy="1057.5" r="2.5" fill="#F5F3EE"/>
<circle cx="287.5" cy="1057.5" r="2.5" fill="#F5F3EE"/>
<circle cx="342.5" cy="1057.5" r="2.5" fill="#F5F3EE"/>
<circle cx="397.5" cy="1057.5" r="2.5" fill="#F5F3EE"/>
<circle cx="452.5" cy="1057.5" r="2.5" fill="#F5F3EE"/>
<circle cx="507.5" cy="1057.5" r="2.5" fill="#F5F3EE"/>
<circle cx="562.5" cy="1057.5" r="2.5" fill="#F5F3EE"/>
<circle cx="617.5" cy="1057.5" r="2.5" fill="#F5F3EE"/>
<circle cx="672.5" cy="1057.5" r="2.5" fill="#F5F3EE"/>
<circle cx="727.5" cy="1057.5" r="2.5" fill="#F5F3EE"/>
<circle cx="782.5" cy="1057.5" r="2.5" fill="#F5F3EE"/>
<circle cx="837.5" cy="1057.5" r="2.5" fill="#F5F3EE"/>
<circle cx="892.5" cy="1057.5" r="2.5" fill="#F5F3EE"/>
<circle cx="947.5" cy="1057.5" r="2.5" fill="#F5F3EE"/>
<circle cx="1002.5" cy="1057.5" r="2.5" fill="#F5F3EE"/>
<circle cx="1057.5" cy="1057.5" r="2.5" fill="#F5F3EE"/>
<circle cx="1112.5" cy="1057.5" r="2.5" fill="#F5F3EE"/>
<circle cx="1167.5" cy="1057.5" r="2.5" fill="#F5F3EE"/>
<circle cx="1222.5" cy="1057.5" r="2.5" fill="#F5F3EE"/>
<circle cx="1277.5" cy="1057.5" r="2.5" fill="#F5F3EE"/>
<circle cx="1332.5" cy="1057.5" r="2.5" fill="#F5F3EE"/>
<circle cx="1387.5" cy="1057.5" r="2.5" fill="#F5F3EE"/>
<circle cx="1442.5" cy="1057.5" r="2.5" fill="#F5F3EE"/>
<circle cx="1497.5" cy="1057.5" r="2.5" fill="#F5F3EE"/>
<circle cx="1552.5" cy="1057.5" r="2.5" fill="#F5F3EE"/>
<circle cx="1607.5" cy="1057.5" r="2.5" fill="#F5F3EE"/>
<circle cx="1662.5" cy="1057.5" r="2.5" fill="#F5F3EE"/>
<circle cx="1717.5" cy="1057.5" r="2.5" fill="#F5F3EE"/>
<circle cx="1772.5" cy="1057.5" r="2.5" fill="#F5F3EE"/>
<circle cx="1827.5" cy="1057.5" r="2.5" fill="#F5F3EE"/>
<circle cx="1882.5" cy="1057.5" r="2.5" fill="#F5F3EE"/>
</g>
</svg>
