<svg width="59" height="60" viewBox="0 0 59 60" fill="none" xmlns="http://www.w3.org/2000/svg">
<path d="M33.9822 10.6521L31.4546 2.86662C30.8561 1.02343 28.2485 1.0234 27.6501 2.86662L25.1224 10.6521C22.8669 17.5992 17.4457 23.062 10.5161 25.3707L2.90497 27.9063C1.08116 28.514 1.08117 31.0937 2.90497 31.7013L10.5161 34.237C17.4458 36.5456 22.8669 42.0084 25.1224 48.9555L27.6501 56.741C28.2485 58.5842 30.8561 58.5842 31.4546 56.741L33.9822 48.9555C36.2377 42.0084 41.6589 36.5456 48.5885 34.237L56.1996 31.7013C58.0235 31.0937 58.0234 28.5139 56.1996 27.9063L48.5885 25.3707C41.6589 23.062 36.2377 17.5992 33.9822 10.6521Z" stroke="#F5F3EE" stroke-width="2"/>
</svg>
