<svg width="24" height="25" viewBox="0 0 24 25" fill="none" xmlns="http://www.w3.org/2000/svg">
<path d="M13.172 3.23828H9C7.114 3.23828 6.172 3.23828 5.586 3.82428C5 4.41028 5 5.35228 5 7.23828V17.2383C5 19.1243 5 20.0663 5.586 20.6523C6.172 21.2383 7.114 21.2383 9 21.2383H15C16.886 21.2383 17.828 21.2383 18.414 20.6523C19 20.0663 19 19.1243 19 17.2383V9.06628C19 8.65828 19 8.45328 18.924 8.27028C18.848 8.08728 18.704 7.94128 18.414 7.65228L14.586 3.82428C14.296 3.53428 14.152 3.39028 13.969 3.31428C13.785 3.23828 13.58 3.23828 13.172 3.23828Z" stroke="#1B1916" stroke-width="2"/>
<path d="M9 13.2383H15M9 17.2383H13" stroke="#1B1916" stroke-width="2" stroke-linecap="round"/>
<path d="M13 3.23828V7.23828C13 8.18128 13 8.65228 13.293 8.94528C13.586 9.23828 14.057 9.23828 15 9.23828H19" stroke="#1B1916" stroke-width="2"/>
</svg>
