<svg width="20" height="21" viewBox="0 0 20 21" fill="none" xmlns="http://www.w3.org/2000/svg">
<path d="M5.55556 0.238281C2.48778 0.238281 0 2.72606 0 5.79384V14.6827C0 17.7505 2.48778 20.2383 5.55556 20.2383H14.4444C17.5122 20.2383 20 17.7505 20 14.6827V5.79384C20 2.72606 17.5122 0.238281 14.4444 0.238281H5.55556ZM16.6667 2.4605C17.28 2.4605 17.7778 2.95828 17.7778 3.57161C17.7778 4.18495 17.28 4.68273 16.6667 4.68273C16.0533 4.68273 15.5556 4.18495 15.5556 3.57161C15.5556 2.95828 16.0533 2.4605 16.6667 2.4605ZM10 4.68273C13.0678 4.68273 15.5556 7.1705 15.5556 10.2383C15.5556 13.3061 13.0678 15.7938 10 15.7938C6.93222 15.7938 4.44444 13.3061 4.44444 10.2383C4.44444 7.1705 6.93222 4.68273 10 4.68273ZM10 6.90495C9.11595 6.90495 8.2681 7.25614 7.64298 7.88126C7.01786 8.50638 6.66667 9.35423 6.66667 10.2383C6.66667 11.1223 7.01786 11.9702 7.64298 12.5953C8.2681 13.2204 9.11595 13.5716 10 13.5716C10.8841 13.5716 11.7319 13.2204 12.357 12.5953C12.9821 11.9702 13.3333 11.1223 13.3333 10.2383C13.3333 9.35423 12.9821 8.50638 12.357 7.88126C11.7319 7.25614 10.8841 6.90495 10 6.90495Z" fill="#1B1916"/>
</svg>
