<svg width="20" height="21" viewBox="0 0 20 21" fill="none" xmlns="http://www.w3.org/2000/svg">
<path d="M17.7778 0.238281H2.22222C0.994444 0.238281 0 1.23273 0 2.4605V18.0161C0 19.2438 0.994444 20.2383 2.22222 20.2383H17.7778C19.0056 20.2383 20 19.2438 20 18.0161V2.4605C20 1.23273 19.0056 0.238281 17.7778 0.238281ZM5.26444 15.7938C4.49 15.7938 3.86222 15.1661 3.86222 14.3916V9.41717C3.86333 8.64384 4.49111 8.01606 5.26444 8.01606C6.03889 8.01606 6.66667 8.64384 6.66667 9.41828V14.3927C6.66667 15.1661 6.03889 15.7938 5.26444 15.7938ZM5.21556 6.5905C4.35889 6.5905 3.78667 6.01939 3.78667 5.25717C3.78667 4.49495 4.35778 3.92384 5.31 3.92384C6.16667 3.92384 6.73889 4.49495 6.73889 5.25717C6.73889 6.01939 6.16778 6.5905 5.21556 6.5905ZM15.31 15.7938C14.5611 15.7938 13.9533 15.1861 13.9533 14.4372V11.5427C13.9533 10.3672 13.23 10.2383 12.9589 10.2383C12.6878 10.2383 11.7833 10.2772 11.7833 11.5427V14.4372C11.7833 15.1861 11.1756 15.7938 10.4267 15.7938H10.3367C9.58778 15.7938 8.98 15.1861 8.98 14.4372V9.41828C8.98 8.64384 9.60778 8.01606 10.3822 8.01606C11.1567 8.01606 11.7844 8.64384 11.7844 9.41828C11.7844 9.41828 12.0978 8.01606 14.2267 8.01606C15.5811 8.01606 16.6667 9.10161 16.6667 11.5427V14.4372C16.6667 15.1861 16.0589 15.7938 15.31 15.7938Z" fill="#1B1916"/>
</svg>
