<svg width="24" height="24" viewBox="0 0 24 24" fill="none" xmlns="http://www.w3.org/2000/svg">
<path d="M20.0001 19.9999L15.9501 15.9499M15.9501 15.9499C16.6002 15.2998 17.1158 14.5281 17.4676 13.6788C17.8194 12.8295 18.0005 11.9192 18.0005 10.9999C18.0005 10.0806 17.8194 9.17027 17.4676 8.32095C17.1158 7.47163 16.6002 6.69991 15.9501 6.04987C15.3001 5.39983 14.5284 4.88418 13.679 4.53238C12.8297 4.18058 11.9194 3.99951 11.0001 3.99951C10.0808 3.99951 9.17051 4.18058 8.32119 4.53238C7.47187 4.88418 6.70016 5.39983 6.05011 6.04987C4.73729 7.36269 3.99976 9.14326 3.99976 10.9999C3.99976 12.8565 4.73729 14.637 6.05011 15.9499C7.36293 17.2627 9.1435 18.0002 11.0001 18.0002C12.8567 18.0002 14.6373 17.2627 15.9501 15.9499Z" stroke="#F5F3EE" stroke-width="2" stroke-linecap="round" stroke-linejoin="round"/>
</svg>
