<svg width="19" height="21" viewBox="0 0 19 21" fill="none" xmlns="http://www.w3.org/2000/svg">
<path d="M0.943901 0.238281C0.225012 0.238281 -0.196376 1.04802 0.214735 1.63802L6.86838 11.1476L0.188693 18.9557C-0.243529 19.4602 0.114526 20.2383 0.778971 20.2383H1.51682C1.84237 20.2383 2.15206 20.0954 2.36317 19.8477L8.18348 13.0291L12.565 19.2899C12.9817 19.8833 13.6613 20.2383 14.3857 20.2383H18.0902C18.8091 20.2383 19.2304 19.4296 18.8193 18.8407L11.7989 8.79297L18.1618 1.33854C18.5307 0.905208 18.2229 0.238281 17.654 0.238281H16.7143C16.3899 0.238281 16.0812 0.380069 15.8701 0.626736L10.4903 6.9158L6.48861 1.1888C6.07305 0.593246 5.39453 0.238281 4.66786 0.238281H0.943901Z" fill="#1B1916"/>
</svg>
